<?xml version="1.0" encoding="UTF-8"?>
<svg xmlns="http://www.w3.org/2000/svg" viewBox="0 0 165.17041015625 110" fill="none"><path d="M24.701372272642658 53.69587583547064C35.65307003253239 53.69587583547064 42.643451612140694 47.4064065107614 43.925084038300156 37.389733195294774H37.983197225735154C36.58512090981349 44.61100351769336 32.04131041317015 48.221763618688534 24.701372272642658 48.221763618688534C15.846838962553779 48.221763618688534 10.37102756454768 41.46626885533874 10.37102756454768 30.284906762658377C10.37102756454768 19.1036696097739 15.6138262432335 12.58121255370355 24.701372272642658 12.58121255370355C31.808172754053988 12.58121255370355 36.35198325069734 16.424810458304773 37.983197225735154 23.413143025260613H43.925084038300156C42.41031395302454 13.629457441155092 35.76951392229458 7.107000385084744 24.934384991962936 7.107000385084744C12.235129319109895 7.107000385084744 4.429190727901026 16.07537883718147 4.429190727901026 30.401600532012342C4.429190727901026 44.72769728704733 12.118635453429345 53.69587583547064 24.701372272642658 53.69587583547064Z" fill="white"></path><path d="M80.62265076440762 44.84189226048365V39.48422393346374H66.641887605191V5.357718302938256H80.62265076440762V0H46.835681523171566V5.357718302938256H60.816444682388195V39.48422393346374H46.835681523171566V44.84189226048365H80.62265076440762Z" fill="white"></path><path d="M79.34626580967522 19.797710175899443H94.4922175052891V59.28193410936318H100.31741054850015V19.797710175899443H115.46336224411404V14.439991872961185H79.34626580967522V19.797710175899443Z" fill="white"></path><path d="M126.6474730123038 30.27865977286427H148.9002501772882L149.0166940670504 24.92086650604848H126.6474730123038V11.293608005300916H151.11393348072875V5.935864714403484H120.822030089501V50.777781962846305H126.6474730123038V30.27865977286427Z" fill="white"></path><path d="M107.88276506875826 63.35797001022362C95.30007822546331 63.35797001022362 86.32890112193883 73.14175554616585 86.32890112193883 86.65249519327368C86.32890112193883 100.16323484038152 95.30007822546331 109.94702037632375 108.11565284828266 109.94702037632375C120.93147735069378 109.94702037632375 129.6695167951021 100.16323484038152 129.6695167951021 86.65249519327368C129.6695167951021 73.14175554616585 120.69833969157763 63.35797001022362 107.88276506875826 63.35797001022362ZM107.99920895852047 104.47290815954166C98.44556252659322 104.47290815954166 92.15434404474163 97.01850017802691 92.15434404474163 86.41960741374929C92.15434404474163 75.82071464947167 98.32911863683103 68.83233210659748 107.99920895852047 68.83233210659748C117.66929928020991 68.83233210659748 123.8440738722993 76.28649020852048 123.8440738722993 86.88538297279808C123.8440738722993 97.48452561666745 117.66929928020991 104.47290815954166 107.99920895852047 104.47290815954166Z" fill="white"></path><path d="M117.31497001908802 83.97703440425255H98.6737025938741V89.33470273127246H117.31497001908802V83.97703440425255Z" fill="white"></path><path d="M157.75098531758226 84.44905695309545H165.09094844606892L146.1515746678801 60.80994781300232L163.5761783607933 39.607414572203574H156.70249055053895L141.29091684887953 58.35937865656912H140.04201864924121V39.607414572203574H134.2165757264384V84.44905695309545H140.04201864924121V63.71704698358902H141.3036607080595L157.75098531758226 84.44905695309545Z" fill="white"></path><path d="M62.81922961037963 54.5966917637812V51.24830523413862H57.22692434669298V54.61068502092001C44.649984734008605 55.4972578125 37.18758060555739 62.25025377993216 37.18758060555739 73.84391719902372C37.18758060555739 85.43758061811532 44.6872167931815 92.44220533445419 57.22692434669298 93.31578438726243V96.67241694343323H62.81922961037963V93.31803330358831C75.4671350271251 92.46544413648827 82.97476736168566 85.70545154048672 82.97476736168566 74.07680497854813C82.97476736168566 62.448158416609544 75.4299029679522 55.43528767374244 62.81922961037963 54.5966917637812ZM43.0130235283602 73.84391719902372C43.0130235283602 64.92446517099447 48.33970678600132 60.55557038858618 57.22692434669298 59.85315885613653V88.03957680715772C48.152047212586275 87.22646861555646 43.0130235283602 82.58045736588147 43.0130235283602 73.84391719902372ZM62.81922961037963 88.07905778265648V59.870650427560044C71.96607206691448 60.65452270692488 77.14957431847462 65.3030327525175 77.14957431847462 74.07680497854813C77.14957431847462 82.85057720457877 71.77616357717355 87.4211248175409 62.81922961037963 88.07905778265648Z" fill="white"></path><path d="M16.776990754937476 58.82415469725085L0 98.4248225204768V103.66604695773448H39.3792745049227V98.4248225204768L22.602333725903577 58.82415469725085H16.776990754937476ZM6.407887263246383 98.4248225204768L19.689662240420528 65.71108612586872L32.971362253717146 98.4248225204768H6.407887263246383Z" fill="white"></path></svg>