<?xml version="1.0" encoding="UTF-8"?> <svg xmlns="http://www.w3.org/2000/svg" viewBox="0 0 942.140625 36.986328125" fill="none"><path d="M32.649959600524014 18.56341993524476V3.013425165411913H45.15000844471346V20.063420797127886C45.15000844471346 21.963425221792917 44.71655876475856 23.830083517677103 43.84990937582913 25.66352067027063C43.01675609826877 27.463311728906874 41.68341088899575 29.113370170303796 39.85012371899045 30.613446023481032C38.05008268937384 32.11352187665826 35.71660358765588 33.31338258241576 32.84993638481693 34.21352808271425C30.016765293347042 35.08017747164367 26.61666001840674 35.5133771806182 22.64999551646657 35.5133771806182C19.883341702872112 35.5133771806182 17.150009020960468 35.26340620025206 14.449997470731626 34.76346423951976C11.783332049283631 34.230026167418416 9.366662605299814 33.38012483417352 7.199989138780181 32.213510268804725C5.033340669358584 31.04664573245556 3.2999918973036615 29.49682565418546 2.0000003159408997 27.56330012105333C0.6999987357389228 25.59677841851287 0.03333338026084505 23.180083977431018 0 20.313416774592067H12.000006895065004C12.46667771831056 22.380076851867205 13.533328888630937 23.846756582067524 15.200010400222208 24.71340597099695C16.900013043496287 25.580030362828335 19.383324750845716 26.013480042783232 22.64999551646657 26.013480042783232C25.416549341668876 26.013480042783232 27.51655554772486 25.69676681065933 28.949889149144337 25.063340346411515C30.38322275056381 24.430088861849963 31.350110502620062 23.54674141143208 31.850052463352352 22.41342298064805C32.38324056447334 21.280079552765987 32.649959600524014 19.996753536664237 32.649959600524014 18.56341993524476Z" fill="white"></path><path d="M81.89524261657603 36.01331914135049C74.62858621733218 36.01331914135049 68.77876533480367 35.38014264808305 64.34528002702972 34.11353969056779C59.91204469023614 32.813440621683476 56.67867005920006 30.913411199920407 54.64540610490183 28.41345142527859C52.64538829099231 25.87999553926771 51.64525439854736 22.746759282966305 51.64525439854736 19.013417694099893C51.64525439854736 15.280076105233485 52.64538829099231 12.163412924930354 54.64540610490183 9.663428153190502C56.67867005920006 7.130072255571769 59.91204469023614 5.230092828004776 64.34528002702972 3.96341487919541C68.77876533480367 2.663415798703237 74.62858621733218 2.0134162584571507 81.89524261657603 2.0134162584571507C89.16189901581986 2.0134162584571507 95.01196986932874 2.663415798703237 99.44520520612231 3.96341487919541C103.87869051389626 5.230092828004776 107.09531708924781 7.130072255571769 109.09533490315734 9.663428153190502C111.12859885745556 12.163412924930354 112.14523083460467 15.280076105233485 112.14523083460467 19.013417694099893C112.14523083460467 22.746759282966305 111.12859885745556 25.87999553926771 109.09533490315734 28.41345142527859C107.09531708924781 30.913411199920407 103.87869051389626 32.813440621683476 99.44520520612231 34.11353969056779C95.01196986932874 35.38014264808305 89.16189901581986 36.01331914135049 81.89524261657603 36.01331914135049ZM81.89524261657603 26.513422003515522C85.32859403190501 26.513422003515522 88.29524962689042 26.313445219222608 90.79520940153225 25.913491650636775C93.29541914715442 25.48004197068188 95.22869470930618 24.73007903538737 96.5952860589679 23.663427865066993C97.9618774086296 22.563405568867736 98.64529806895065 21.013410510911385 98.64529806895065 19.013417694099893C98.64529806895065 17.013424877288404 97.9618774086296 15.480077886624438 96.5952860589679 14.41342671630406C95.22869470930618 13.31342941720284 93.29541914715442 12.563416487712258 90.79520940153225 12.163412924930354C88.29524962689042 11.730088230465642 85.32859403190501 11.513413384684267 81.89524261657603 11.513413384684267C78.46189120124703 11.513413384684267 75.44524141018837 11.730088230465642 72.8452932434001 12.163412924930354C70.27859121700052 12.563416487712258 68.26207531838683 13.31342941720284 66.7952456055983 14.41342671630406C65.36191200417883 15.480077886624438 64.64524520346909 17.013424877288404 64.64524520346909 19.013417694099893C64.64524520346909 21.013410510911385 65.36191200417883 22.563405568867736 66.7952456055983 23.663427865066993C68.26207531838683 24.73007903538737 70.27859121700052 25.48004197068188 72.8452932434001 25.913491650636775C75.44524141018837 26.313445219222608 78.46189120124703 26.513422003515522 81.89524261657603 26.513422003515522Z" fill="white"></path><path d="M119.39913871384982 3.013425165411913H131.89918755803927V35.01343521988591H119.39913871384982V3.013425165411913Z" fill="white"></path><path d="M189.79521629162247 25.2133229346312L185.14525611485143 27.86351526847307V3.013425165411913H197.64530495904086V35.01343521988591H185.14525611485143L147.49537696504376 13.213416027958345L152.14533714181482 10.513429474827541V35.01343521988591H139.64528829762537V3.013425165411913H152.14533714181482L189.79521629162247 25.2133229346312Z" fill="white"></path><path d="M270.51359553263467 3.013425165411913V12.51342229163903H232.61399537344124V16.763428899824223H263.61439647452903V25.263317130704433H232.61399537344124V35.01343521988591H220.1139465292518V3.013425165411913H270.51359553263467Z" fill="white"></path><path d="M276.5103993516185 35.01343521988591V3.013425165411913H315.16091233583177C318.19306032767315 3.013425165411913 320.91024488425313 3.3634095350225524 323.30996629576816 4.063428268439905C325.7446836445344 4.730075875978376 327.659461354139 5.86341930386044 329.05929884418947 7.463408557890024C330.49413227149114 9.063422809017643 331.211548985142 11.246744342829663 331.211548985142 14.013423153522155C331.211548985142 15.846760317723534 330.87658787145136 17.363409246899042 330.2116650636774 18.56341993524476C329.5442425460998 19.76340562649244 328.62684904815603 20.69674727298355 327.4594845698461 21.36341987762006C326.2946198013399 22.030092482256567 324.9597747661847 22.513411372794508 323.4599488839878 22.81342654342996C321.9601230017909 23.113416716967365 320.3928049548952 23.296745433967896 318.7604944531043 23.36341269443155L315.11091813975855 22.66341895811223C319.0779575981693 22.69674008979504 322.1276035586363 22.863420739503184 324.25985602115946 23.163410913040597C326.4271044209339 23.46342608367604 327.9269303031308 24.013412234677634 328.75933366775007 24.813419360241443C329.6267329696206 25.580030362828335 330.0616824754577 26.696650732123906 330.0616824754577 28.163480444912445V35.01343521988591H317.5606337473468V29.663306327109314C317.5606337473468 28.663422405644734 317.3606569630538 27.9135094645463 316.96070339446806 27.41331753283364C316.5932460533298 26.880129431712657 315.76084268871057 26.513422003515522 314.4609935908066 26.313445219222608C313.19364072035023 26.11346843492969 311.22636910486864 26.013480042783232 308.5616784541656 26.013480042783232H289.0114480797294V35.01343521988591H276.5103993516185ZM289.0114480797294 17.663424417534493H315.16091233583177C316.16079625729634 17.663424417534493 316.9931996219156 17.496743767826345 317.6606221394932 17.163407465508094C318.36054088451846 16.830096160287873 318.7105002570311 16.196744687334174 318.7105002570311 15.263428037941098C318.7105002570311 14.396753651913638 318.36054088451846 13.813421372131202 317.6606221394932 13.513406201495755C316.9931996219156 13.180094896275538 316.16079625729634 13.013414246567391 315.16091233583177 13.013414246567391H289.0114480797294V17.663424417534493Z" fill="white"></path><path d="M338.8806586627753 3.013425165411913H351.3817073908862V35.01343521988591H338.8806586627753V3.013425165411913Z" fill="white"></path><path d="M371.62685709074026 21.51342746293778V25.513538082050943H409.6274455260016V35.01343521988591H359.128308072433V3.013425165411913H409.52745713385514V12.51342229163903H371.62685709074026V16.51340792526201H402.62825807574956V21.51342746293778H371.62685709074026Z" fill="white"></path><path d="M466.26087083775536 25.2133229346312L461.6114106029451 27.86351526847307V3.013425165411913H474.10995962125236V35.01343521988591H461.6114106029451L423.96078154019636 13.213416027958345L428.61024177500667 10.513429474827541V35.01343521988591H416.10919304689577V3.013425165411913H428.61024177500667L466.26087083775536 25.2133229346312Z" fill="white"></path><path d="M517.0999688246219 3.013425165411913C521.5994464712126 3.013425165411913 525.3165149492571 3.4467498598766255 528.2511742587557 4.313424245904086C531.1833338584505 5.18007363483351 533.483066877819 6.363411258788804 535.1503733168612 7.863412120671929C536.8176797559034 9.363412982555054 537.9825445244096 11.080088690219554 538.6499670419872 13.013414246567391C539.3498857870125 14.913418671232423 539.6998451595251 16.913411488043913 539.6998451595251 19.013417694099893C539.6998451595251 21.113423900155876 539.3173895595648 23.130089781357785 538.5499786498408 25.063340346411515C537.7825677401167 26.963369768174584 536.5177145794642 28.663422405644734 534.7504197482755 30.16349825882197C533.0181208543381 31.66332414101884 530.7008898663439 32.84668676207217 527.8012264940966 33.71333615100159C524.934059349297 34.57998553993102 521.366973459472 35.01343521988591 517.0999688246219 35.01343521988591H481.10164794209345V3.013425165411913H517.0999688246219ZM493.6001969604007 25.013346150338286H516.6000268638896C518.4673100872247 25.013346150338286 520.0496263929424 24.896759685095518 521.3494754908463 24.66341177492372C522.6493245887503 24.396742733069114 523.6842044474662 24.013412234677634 524.4516153571903 23.51342027974927C525.2515224943619 23.01342832482091 525.8164569099895 22.396749916257626 526.15141802368 21.66341005115747C526.5163756550146 20.896749054374503 526.7013541804856 20.013426601054658 526.7013541804856 19.013417694099893C526.7013541804856 18.01340878714513 526.5163756550146 17.146759398215707 526.15141802368 16.413419533115547C525.8164569099895 15.646758536332582 525.2515224943619 15.013407063378882 524.4516153571903 14.513415108450518C523.6842044474662 14.013423153522155 522.6493245887503 13.646740722423056 521.3494754908463 13.413417809349298C520.0496263929424 13.146748767494694 518.4673100872247 13.013414246567391 516.6000268638896 13.013414246567391H493.6001969604007V25.013346150338286Z" fill="white"></path><path d="M544.4392949472673 23.263424302285088H558.0877104752587C558.3226831968029 23.963418038604406 559.0051039732025 24.563423382777263 560.137472514261 25.063340346411515C561.2723407651233 25.53003616675511 562.7871649061422 25.896743594952245 564.6894440667286 26.16346263100292C566.6217197449589 26.396685555684535 568.8539605996285 26.513422003515522 571.3886663405414 26.513422003515522C573.8883761442028 26.513422003515522 575.8556477596843 26.446679751757763 577.2879814771823 26.313445219222608C578.7553111319315 26.146714575318388 579.7876912808438 25.87999553926771 580.3876216337226 25.513538082050943C580.9875519866011 25.113334542484747 581.2875171630407 24.580071450069646 581.2875171630407 23.913423842531177C581.2875171630407 23.280072369577475 580.805073170934 22.79675347903953 579.8376854769169 22.46341717672128C578.8727974927037 22.09675974272022 577.1554968575882 21.846738768157998 574.6882832813744 21.713429244328733C572.2210697051605 21.580094723401434 568.7539722074822 21.51342746293778 564.2894904981428 21.51342746293778C560.9548776200584 21.51342746293778 558.0727122164368 21.36341987762006 555.6379948676705 21.063429704082647C553.2382734561555 20.730093401764396 551.256003581852 20.230076449737993 549.6886855349563 19.563428842199524C548.1538637155081 18.863410108782173 547.0214951744495 17.996760719852748 546.2890802019766 16.96340568411714C545.5541655197002 15.896754513796763 545.1892078883657 14.630076564987396 545.1892078883657 13.163421831885115C545.1892078883657 10.630090931364421 546.0391092216105 8.54675778969886 547.7389118881003 6.913422406888432C549.4712107820377 5.246740895297161 552.0709089778455 4.013409075268639 555.538006475524 3.2134269468028656C559.03760020065 2.3800836912974264 563.4045932276466 1.9634170629643144 568.6389855565137 1.9634170629643144C576.3055955243433 1.9634170629643144 582.1549164649111 3.0800924258755638 586.1894480880208 5.313408155760812C590.2539762287743 7.51342775106129 592.2887400089546 10.696758191828073 592.2887400089546 14.863424475159194H579.3377435161847C579.172762669143 13.763427176057974 578.1378828104272 12.930073921713321 576.2381033596445 12.363414706321306C574.3383239088618 11.76340936214845 571.6386373209075 11.463419188611038 568.1390435957815 11.463419188611038C564.6719460981029 11.463419188611038 562.087246161117 11.66342097000199 560.3874434946272 12.063424532783896C558.7226367653888 12.4634280955658 557.8877336909658 13.146748767494694 557.8877336909658 14.113411545668614C557.8877336909658 14.613428497695013 558.12270641251 15.013407063378882 558.587652435991 15.313422234014329C559.0550981692757 15.613412407551738 559.8550053064473 15.86340838501592 560.987373847506 16.06341016640687C562.1547383258159 16.230090816115016 563.7895485374105 16.346752272651898 565.8893047724862 16.413419533115547C567.9890610075616 16.480086793579197 570.6537516582648 16.51340792526201 573.8883761442028 16.51340792526201C577.4554620340276 16.51340792526201 580.4876100258689 16.696761639360574 582.9873198295303 17.063419073361636C585.4895293429955 17.39675537567989 587.5042954447466 17.913420394998674 589.0391172641947 18.613414131317988C590.6039356012868 19.313407867637306 591.7388038521491 20.21342838244561 592.4387225971744 21.31342568154683C593.1386413421995 22.380076851867205 593.4886007147121 23.64675480067657 593.4886007147121 25.113334542484747C593.4886007147121 27.64679042849562 592.6886935775406 29.713300523182543 591.0888793031971 31.313364768506236C589.4890650288538 32.91342901382993 586.9543592879412 34.09679163488326 583.4872617902627 34.86345263166623C580.022664002388 35.630113628449195 575.488190418546 36.01331914135049 569.8888404583445 36.01331914135049C566.7217081371053 36.01331914135049 563.8045467962324 35.8300904127421 561.1373564357257 35.46338298454497C558.5051620124702 35.09667555634784 556.1554347970284 34.563487455226856 554.0881747894005 33.86331873922128C552.0209147817724 33.13015385380738 550.2711179192094 32.246756409193424 548.8387842017114 31.213376376359776C547.4039507744096 30.146750203137437 546.3040784607986 28.96338758208411 545.5391672608782 27.663538484180155C544.8042525786017 26.33019327490714 544.4392949472673 24.863413556314672 544.4392949472673 23.263424302285088Z" fill="white"></path><path d="M673.6992888946007 21.66341005115747C673.534308047559 24.830092424631868 672.3844415378747 27.480059784591408 670.2496893655479 29.613312131036086C668.1174369030248 31.74681444846113 664.9678025504112 33.346628722804454 660.8007863077077 34.41350486700716C656.6662662924515 35.48013104022951 651.4343736733882 36.01331914135049 645.1001090309101 36.01331914135049C640.2656702706289 36.01331914135049 635.9336731808836 35.74685007628018 632.0991183420668 35.21341200417883C628.2670632130539 34.71347004344654 624.9999424996684 33.84682065451711 622.300255911714 32.613463837390555C619.6005693237596 31.3468608798753 617.5333093161316 29.63006018672062 616.1009755986336 27.463311728906874C614.6661421713319 25.296813242073494 613.9512251674848 22.563405568867736 613.9512251674848 19.263413671564077C613.9512251674848 15.963421774260414 614.6661421713319 13.213416027958345 616.1009755986336 11.013421429755903C617.5333093161316 8.780080702772619 619.6005693237596 7.01341079903489 622.300255911714 5.713411718542718C624.9999424996684 4.380091506367737 628.2670632130539 3.4300767954862033 632.0991183420668 2.8634175800941897C635.9336731808836 2.296750865572765 640.2656702706289 2.0134162584571507 645.1001090309101 2.0134162584571507C651.4343736733882 2.0134162584571507 656.6837642610773 2.596748538239586 660.8507805037809 3.7634130978044578C665.0177967464846 4.896756525686522 668.1674310990979 6.580086104570178 670.2996835616212 8.813426831553464C672.434435733948 11.046742561438712 673.5843022436324 13.763427176057974 673.7492830906739 16.96340568411714H660.7507921116344C660.3508385430486 15.896754513796763 659.6159238607721 14.963412867305651 658.5510474844124 14.163405741741842C657.4836713982488 13.330077484495225 655.8838571239056 12.680077944249138 653.7491049515787 12.213407121003582C651.6168524890554 11.746761294856062 648.7321873756301 11.513413384684267 645.1001090309101 11.513413384684267C640.83310439606 11.513413384684267 637.3660068983816 11.78008242653887 634.6988165378748 12.313420510248077C632.0341258871716 12.81341246517644 630.0843522403158 13.630092655130671 628.849495597307 14.763411085914699C627.617138664102 15.896754513796763 626.9997103425975 17.39675537567989 626.9997103425975 19.263413671564077C626.9997103425975 20.963416314838152 627.617138664102 22.3467557201844 628.849495597307 23.413406890504778C630.0843522403158 24.480083057923192 632.0341258871716 25.263317130704433 634.6988165378748 25.76350906241709C637.3660068983816 26.26345102314938 640.83310439606 26.513422003515522 645.1001090309101 26.513422003515522C648.7321873756301 26.513422003515522 651.5993545204298 26.296697163538074 653.6991107555054 25.863497454563543C655.8338629278323 25.43004777460865 657.4336772021757 24.84674049192425 658.5010532883391 24.11342562392213C659.565929664699 23.346739630041128 660.3008443469754 22.53008443718493 660.7007979155612 21.66341005115747H673.6992888946007Z" fill="white"></path><path d="M692.7695749867339 3.013425165411913V25.513538082050943H721.9211907170337V35.01343521988591H680.2710259684267V3.013425165411913H692.7695749867339Z" fill="white"></path><path d="M771.9003885314407 16.763428899824223V3.013425165411913H784.398937549748V19.013417694099893C784.398937549748 21.846738768157998 783.8664993615681 24.263408212141815 782.7991232754047 26.26345102314938C781.7667431264924 28.22997272568984 780.3169114403688 29.863533082382595 778.4496282170337 31.16338218028655C776.5823449936986 32.42998513780181 774.4325945625498 33.41337097456222 772.0003769235872 34.11353969056779C769.5656595748209 34.813458435593 766.950963120191 35.296652340640755 764.1487884302866 35.563371376691435C761.384109387437 35.86333655313081 758.5669364387105 36.01331914135049 755.6997692939109 36.01331914135049C752.6676213020695 36.01331914135049 749.7329619925711 35.86333655313081 746.9007907850225 35.563371376691435C744.0661198676705 35.296652340640755 741.433925444415 34.813458435593 738.9992080956488 34.11353969056779C736.5994866841337 33.41337097456222 734.4997304490581 32.42998513780181 732.6999393904218 31.16338218028655C730.9001483317857 29.863533082382595 729.4828128731097 28.22997272568984 728.4504327241974 26.26345102314938C727.4505488027328 24.263408212141815 726.9506068420005 21.846738768157998 726.9506068420005 19.013417694099893V3.013425165411913H739.4491558603078V16.763428899824223C739.4491558603078 19.43009432127222 740.0990804092597 21.463408269766518 741.3989295071638 22.863420739503184C742.6987786050677 24.263408212141815 744.5510635695808 25.230070990315735 746.9507849810958 25.76350906241709C749.3830026200584 26.26345102314938 752.3001639609314 26.513422003515522 755.6997692939109 26.513422003515522C758.999386234744 26.513422003515522 761.8665533795437 26.26345102314938 764.2987710185063 25.76350906241709C766.7334883672725 25.230070990315735 768.6007715906077 24.263408212141815 769.9006206885116 22.863420739503184C771.2329660138631 21.463408269766518 771.9003885314407 19.43009432127222 771.9003885314407 16.763428899824223Z" fill="white"></path><path d="M791.4031244196074 35.01343521988591V3.013425165411913H822.9019676555453C829.3687169176175 3.013425165411913 834.1356635131998 3.6467516412675773 837.2028074422924 4.913404592978907C840.269951371385 6.1800825417882725 841.8022734810295 8.380077139990714 841.8022734810295 11.513413384684267C841.8022734810295 13.513406201495755 841.1373506732556 15.046753192159725 839.8025056381003 16.1134043624801C838.5026565401964 17.180080529898515 836.6203750580393 17.930093459389095 834.1531614818255 18.363418153853807C831.7209438428629 18.763421716635712 828.7862845333643 19.013417694099893 825.3541829729372 19.113406086246354L825.754136541523 18.713427520562483C828.2538463451845 18.713427520562483 830.5685776233748 18.780094781026133 832.7033297957017 18.9134043048554C834.835582258225 19.046738825782704 836.70286548156 19.346753996418148 838.3026797559035 19.813424819663705C839.9024940302468 20.28009564290926 841.1523489320775 20.996737446520964 842.0522444613956 21.963425221792917C842.9521399907137 22.930087999966833 843.4020877553728 24.263408212141815 843.4020877553728 25.963485846710004C843.4020877553728 28.029995941396923 842.6696727829001 29.730048578867073 841.2023431281507 31.06339378814009C839.7375131832051 32.39673899741311 837.6527552069515 33.39687288985805 834.953068618997 34.0632955235142C832.2533820310427 34.696721987762004 829.0687517411781 35.01343521988591 825.4041771690104 35.01343521988591H791.4031244196074ZM803.9041731477182 25.6135264741974H825.4041771690104C827.1689722903953 25.6135264741974 828.4363251608518 25.446795830293183 829.2037360705757 25.113334542484747C830.0036432077475 24.7800732314606 830.4035967763333 24.246760144849432 830.4035967763333 23.51342027974927C830.4035967763333 23.01342832482091 830.2186182508624 22.613424762039003 829.8536606195278 22.313409591403556C829.5186995058372 22.013419417866146 828.9862613176572 21.796744572084773 828.2538463451845 21.66341005115747C827.518931662908 21.49675439854736 826.5690419375165 21.41341407369329 825.4041771690104 21.41341407369329H803.9041731477182V25.6135264741974ZM803.9041731477182 16.6134213145065H823.3019212241311C825.0692160553197 16.6134213145065 826.3365689257761 16.446740664798355 827.1039798355002 16.1134043624801C827.9038869726718 15.780093057259883 828.3038405412576 15.246754973550678 828.3038405412576 14.513415108450518C828.3038405412576 13.746754111667553 827.9038869726718 13.213416027958345 827.1039798355002 12.913425854420934C826.3365689257761 12.580089552102681 825.0692160553197 12.413408902394535 823.3019212241311 12.413408902394535H803.9041731477182V16.6134213145065Z" fill="white"></path><path d="M924.3101949704829 0.6032599663372248L925.8125205624834 11.756885119560891C925.867514178164 12.239504091353808 926.4549459820245 12.507597967796498 926.8848960682542 12.185860318967233L935.8938502006501 5.375725921166092C936.5362756201911 4.893106949373176 937.2886882710932 5.6974635699953575 936.8062442789865 6.287320092365349L929.994535064009 15.296024253780844C929.6745722091404 15.724999453187186 929.9420411581322 16.314855975557176 930.4244851502389 16.368474750845714L941.5781902941762 17.869925444414964C942.3281032352746 17.97718799209008 942.3281032352746 19.103257264443485 941.5781902941762 19.210519812118598L930.4244851502389 20.71194550858981C929.9420411581322 20.76558928097639 929.6745722091404 21.35544580334638 929.994535064009 21.784421002752723L936.8062442789865 30.739431397585566C937.2886882710932 31.382856701048027 936.4837817143141 32.13376952606793 935.8938502006501 31.651075562980896L926.8848960682542 24.840941165179757C926.4549459820245 24.51920351635049 925.867514178164 24.787322389891216 925.8125205624834 25.26981637619395L924.3101949704829 36.42352152013134C924.2052071587291 37.17418437417087 923.0778380372777 37.17418437417087 922.9703505157204 36.42352152013134L921.4680249237199 25.26981637619395C921.415531017843 24.787322389891216 920.8255995041789 24.51920351635049 920.3956494179491 24.840941165179757L911.4416889012338 31.651075562980896C910.7992634816927 32.13376952606793 910.0468508307907 31.329362911249667 910.5292948228973 30.739431397585566L917.3410040378748 21.784421002752723C917.6609668927435 21.35544580334638 917.3934979437516 20.76558928097639 916.911053951645 20.71194550858981L905.7573488077076 19.156876039732023C905.0074358666092 19.04963848915495 905.0074358666092 17.9235442197035 905.7573488077076 17.816306669126426L916.911053951645 16.314855975557176C917.3934979437516 16.26123720026864 917.6609668927435 15.671380677898647 917.3410040378748 15.24238048139427L910.5292948228973 6.287320092365349C910.0468508307907 5.643844794706819 910.8517573875697 4.893106949373176 911.4416889012338 5.375725921166092L920.3956494179491 12.185860318967233C920.8255995041789 12.507597967796498 921.415531017843 12.239504091353808 921.4680249237199 11.756885119560891L922.9703505157204 0.6032599663372248C923.1303319431547 -0.20108690541672194 924.2052071587291 -0.20108690541672194 924.3101949704829 0.6032599663372248Z" fill="white"></path></svg> 