<?xml version="1.0" encoding="UTF-8"?> <svg xmlns="http://www.w3.org/2000/svg" viewBox="0 0 243 78" fill="none"><path d="M17.508225 38.09375C25.27075 38.09375 30.2255 33.63175 31.13375 26.5255H26.92225C25.93125 31.6485 22.71075 34.21 17.508225 34.21C11.232175 34.21 7.35095 29.4175 7.35095 21.485175C7.35095 13.55275 11.067025 8.925525 17.508225 8.925525C22.5456 8.925525 25.76625 11.652275 26.92225 16.61005H31.13375C30.06025 9.669175 25.35325 5.04195 17.6734 5.04195C8.672225 5.04195 3.139375 11.4044 3.139375 21.5678C3.139375 31.73125 8.58965 38.09375 17.508225 38.09375Z" fill="white"></path><path d="M57.145 31.81225V28.01125H47.2355V3.80095H57.145V0H33.197V3.80095H43.1065V28.01125H33.197V31.81225H57.145Z" fill="white"></path><path d="M56.24025 14.04515H66.97575V42.0565H71.10475V14.04515H81.84V10.2442H56.24025V14.04515Z" fill="white"></path><path d="M89.76725 21.480625H105.54L105.6225 17.679675H89.76725V8.01205H107.109V4.2111H85.63825V36.02325H89.76725V21.480625Z" fill="white"></path><path d="M76.46675 44.94825C67.54825 44.94825 61.18975 51.88925 61.18975 61.47425C61.18975 71.05925 67.54825 78 76.632 78C85.71575 78 91.90925 71.05925 91.90925 61.47425C91.90925 51.88925 85.5505 44.94825 76.46675 44.94825ZM76.5495 74.1165C69.778 74.1165 65.3185 68.82825 65.3185 61.309C65.3185 53.78975 69.69525 48.83175 76.5495 48.83175C83.4035 48.83175 87.78025 54.12025 87.78025 61.6395C87.78025 69.15875 83.4035 74.1165 76.5495 74.1165Z" fill="white"></path><path d="M83.15225 59.576H69.9395V63.377H83.15225V59.576Z" fill="white"></path><path d="M111.81325 59.911H117.01575L103.59175 43.1405L115.94225 28.09875H111.07L100.1465 41.402H99.26125V28.09875H95.13225V59.911H99.26125V45.203H100.1555L111.81325 59.911Z" fill="white"></path><path d="M44.526 38.73275V36.35725H40.56225V38.74275C31.64775 39.3715 26.3585 44.16225 26.3585 52.38725C26.3585 60.61225 31.674 65.5815 40.56225 66.20125V68.5825H44.526V66.20275C53.49075 65.598 58.81225 60.80225 58.81225 52.5525C58.81225 44.30275 53.46425 39.32775 44.526 38.73275ZM30.4875 52.38725C30.4875 46.0595 34.263 42.96 40.56225 42.46175V62.458C34.13 61.88125 30.4875 58.58525 30.4875 52.38725ZM44.526 62.48625V42.47425C51.00925 43.03025 54.68325 46.328 54.68325 52.5525C54.68325 58.777 50.87475 62.01925 44.526 62.48625Z" fill="white"></path><path d="M11.89145 41.73175L0 69.82575V73.544H27.912V69.82575L16.02045 41.73175H11.89145ZM4.541875 69.82575L13.95595 46.61775L23.370025 69.82575H4.541875Z" fill="white"></path><path d="M141.0275 8.997575C140.9605 9.54375 140.7755 10.0106 140.4725 10.398975C140.1695 10.78815 139.7755 11.087275 139.29 11.296325C138.8045 11.505375 138.251 11.610325 137.631 11.610325C137.07025 11.610325 136.5565 11.524375 136.09 11.3525C135.6225 11.18065 135.218 10.933575 134.8745 10.61215C134.531 10.290725 134.26175 9.896575 134.0675 9.4289C133.8735 8.96205 133.776 8.436525 133.776 7.85315C133.776 7.2698 133.87275 6.736025 134.0675 6.27165C134.26175 5.8081 134.531 5.41395 134.8745 5.088375C135.218 4.762825 135.6235 4.51495 136.09 4.343075C136.5565 4.1712 137.071 4.085275 137.631 4.085275C138.2585 4.085275 138.815 4.19185 139.30075 4.40505C139.78625 4.618225 140.18025 4.92065 140.48325 5.31315C140.7855 5.705625 140.9705 6.174975 141.03825 6.720325H140.00675C139.90925 6.36915 139.749 6.070025 139.5245 5.82295C139.30075 5.5759 139.02725 5.3875 138.706 5.25695C138.38475 5.1264 138.0265 5.0603 137.63 5.0603C137.12225 5.0603 136.659 5.16855 136.24025 5.38585C135.8215 5.60235 135.48725 5.91715 135.237 6.327825C134.98675 6.739325 134.86125 7.2475 134.86125 7.85315C134.86125 8.458825 134.986 8.957925 135.237 9.372725C135.48725 9.787525 135.8215 10.1015 136.24025 10.3147C136.659 10.527875 137.1215 10.634475 137.63 10.634475C138.02575 10.634475 138.3825 10.57085 138.70025 10.4436C139.0175 10.31635 139.28825 10.1296 139.513 9.882525C139.73675 9.635475 139.901 9.3405 140.006 8.99675H141.02575L141.0275 8.997575Z" fill="white"></path><path d="M157.65025 45.56175H153.84V46.50375H157.65025V45.56175Z" fill="white"></path><path fill-rule="evenodd" clip-rule="evenodd" d="M153.75575 49.41975C154.34225 49.72625 155.01275 49.87925 155.7675 49.87925C156.52975 49.87925 157.202 49.72625 157.785 49.41975C158.367 49.11325 158.827 48.68025 159.16325 48.11925C159.49925 47.558 159.66775 46.9005 159.66775 46.12275C159.66775 45.34525 159.49925 44.67675 159.16325 44.11575C158.827 43.5555 158.368 43.12175 157.785 42.81525C157.202 42.5095 156.52225 42.35575 155.7675 42.35575C155.01275 42.35575 154.34225 42.50875 153.75575 42.81525C153.1695 43.12175 152.7095 43.55475 152.3775 44.11575C152.04475 44.676 151.87875 45.35275 151.87875 46.12275C151.87875 46.893 152.04475 47.558 152.3775 48.11925C152.7095 48.6795 153.1695 49.11325 153.75575 49.41975ZM157.202 48.58925C156.78325 48.7985 156.305 48.90325 155.7675 48.90325C155.244 48.90325 154.77 48.7985 154.34375 48.58925C153.9185 48.38025 153.5825 48.0705 153.3355 47.659C153.0885 47.24825 152.9655 46.73525 152.9655 46.12275C152.9655 45.5105 153.0885 44.99825 153.3355 44.58675C153.5815 44.176 153.91775 43.86375 154.34375 43.6505C154.77 43.4375 155.23 43.33075 155.7675 43.33075C156.305 43.33075 156.78325 43.4375 157.202 43.6505C157.6205 43.86375 157.9525 44.176 158.1995 44.58675C158.44625 44.9975 158.5695 45.50975 158.5695 46.12275C158.5695 46.736 158.44625 47.24825 158.1995 47.659C157.9525 48.0695 157.6205 48.38025 157.202 48.58925Z" fill="white"></path><path fill-rule="evenodd" clip-rule="evenodd" d="M136.34775 42.4815L133.37825 49.7595H140.4835L137.49075 42.4815H136.34775ZM138.93675 48.79525L136.92025 43.6995L134.91275 48.79525H138.93675Z" fill="white"></path><path d="M142.877 42.4815H141.801V49.7595H142.877V42.4815Z" fill="white"></path><path d="M145.92175 46.609V48.79525H150.6065V49.7595H144.84575V42.4815H150.595V43.446H145.92175V45.66625H149.7435V46.608L145.92175 46.609Z" fill="white"></path><path d="M166.9485 42.4815V48.19425L162.18525 42.4815H161.10925V49.7595H162.18525V44.068L166.9485 49.7595H168.036V42.4815H166.9485Z" fill="white"></path><path d="M170.87325 48.79525V46.609L174.695 46.608V45.66625H170.87325V43.446H175.5465V42.4815H169.79725V49.7595H175.558V48.79525H170.87325Z" fill="white"></path><path d="M177.13175 42.4815H182.91475V43.446H178.37875L181.11125 46.0255L178.372 48.79625H183.027V49.7605H177.13175V48.8185L179.77725 46.06525L177.13175 43.49125V42.4815Z" fill="white"></path><path fill-rule="evenodd" clip-rule="evenodd" d="M191.56475 48.86275V49.76075H190.478V48.863C190.01425 48.8415 189.59175 48.791 189.21125 48.71225C188.6885 48.604 188.24525 48.4355 187.8835 48.2075C187.521 47.97925 187.2485 47.69175 187.065 47.344C186.88175 46.996 186.791 46.59125 186.791 46.12675C186.791 45.6625 186.8825 45.237 187.065 44.89325C187.2485 44.5495 187.521 44.2635 187.8835 44.0355C188.246 43.8075 188.6885 43.63975 189.21125 43.5305C189.59175 43.45175 190.01425 43.4015 190.478 43.38V42.47125H191.56475V43.38025C192.028 43.40225 192.45325 43.45225 192.8315 43.5305C193.35425 43.63875 193.79525 43.8075 194.15375 44.0355C194.512 44.2635 194.7855 44.5495 194.972 44.89325C195.15875 45.237 195.252 45.6485 195.252 46.12675C195.252 46.60525 195.15875 46.996 194.972 47.344C194.7855 47.69175 194.513 47.97925 194.15375 48.2075C193.79525 48.4355 193.35425 48.604 192.8315 48.71225C192.45275 48.79075 192.0305 48.841 191.56475 48.86275ZM190.478 44.358C190.038 44.38125 189.65425 44.43475 189.31775 44.518C188.8505 44.63375 188.49375 44.8205 188.2475 45.079C188.00075 45.33675 187.87775 45.6865 187.87775 46.1275C187.87775 46.56875 188.00075 46.90675 188.2475 47.1645C188.4945 47.4225 188.85125 47.60925 189.31775 47.72575C189.65325 47.80875 190.04025 47.862 190.478 47.8855V44.358ZM191.56475 44.3585V47.88525C192.004 47.8615 192.39075 47.8085 192.725 47.72575C193.19175 47.61 193.54675 47.42325 193.7895 47.1645C194.03225 46.90675 194.15375 46.5605 194.15375 46.1275C194.15375 45.69475 194.03225 45.33675 193.7895 45.079C193.54675 44.82125 193.19175 44.6345 192.725 44.518C192.39075 44.43525 192.00425 44.382 191.56475 44.3585Z" fill="white"></path><path d="M197.812 46.609V48.79525H202.49675V49.7595H196.736V42.4815H202.48525V43.446H197.812V45.66625H201.63375V46.608L197.812 46.609Z" fill="white"></path><path d="M209.83625 42.4815H204.05325V43.49125L206.69875 46.06525L204.05325 48.8185V49.7605H209.9485V48.79625H205.2935L208.03275 46.0255L205.30025 43.446H209.83625V42.4815Z" fill="white"></path><path d="M210.866 42.4815H217.24275V43.446H214.59775V49.7595H213.511V43.446H210.866V42.4815Z" fill="white"></path><path d="M219.6105 42.4815H218.5345V49.7595H219.6105V42.4815Z" fill="white"></path><path fill-rule="evenodd" clip-rule="evenodd" d="M221.5755 49.7595V42.4815H224.84825C225.67 42.4815 226.305 42.65025 226.75325 42.9865C227.20175 43.32275 227.4255 43.80525 227.4255 44.43325C227.4255 44.8225 227.34125 45.1365 227.17375 45.37525C227.00525 45.615 226.76825 45.79175 226.46175 45.90825C226.2575 45.9855 226.03025 46.04525 225.7795 46.0875C225.95075 46.1055 226.1165 46.12975 226.27675 46.16025C226.5495 46.21225 226.78875 46.299 226.9945 46.418C227.2 46.538 227.3645 46.70225 227.4875 46.91125C227.6105 47.1205 227.6725 47.394 227.6725 47.73025C227.6725 48.1715 227.5675 48.53925 227.35875 48.835C227.14975 49.13075 226.86 49.353 226.49 49.50275C226.12 49.65225 225.69225 49.738 225.20675 49.7605L221.5755 49.7595ZM222.65175 45.6885H224.75825C225.25125 45.6885 225.636 45.58925 225.91275 45.391C226.18925 45.19275 226.32725 44.9035 226.32725 44.52175C226.32725 44.14 226.18925 43.8565 225.91275 43.69225C225.636 43.52775 225.285 43.445 224.859 43.445H222.65075V45.68775L222.65175 45.6885ZM222.65175 48.7945H225.00525C225.49825 48.7945 225.883 48.7045 226.1595 48.525C226.43625 48.34575 226.57425 48.0615 226.57425 47.67325C226.57425 47.374 226.48825 47.15025 226.3165 47.0005C226.14475 46.851 225.9225 46.7535 225.64925 46.709C225.37675 46.66425 225.09425 46.642 224.80275 46.642H222.65075V48.79525L222.65175 48.7945Z" fill="white"></path><path fill-rule="evenodd" clip-rule="evenodd" d="M231.351 42.4815L228.38125 49.7595H229.53575L230.247 47.95425H233.60675L234.32125 49.7595H235.4865L232.49375 42.4815H231.351ZM233.22525 46.98975L231.92325 43.6995L230.627 46.98975H233.22525Z" fill="white"></path><path d="M235.89475 49.7595L238.8645 42.4815H240.00725L243 49.7595H241.83475L239.43675 43.6995L237.04925 49.7595H235.89475Z" fill="white"></path><path d="M139.48375 55.69225H135.67375V56.63425H139.48375V55.69225Z" fill="white"></path><path fill-rule="evenodd" clip-rule="evenodd" d="M135.5895 59.55025C136.17575 59.85675 136.84625 60.0095 137.601 60.0095C138.36325 60.0095 139.0355 59.85675 139.6185 59.55025C140.20075 59.24375 140.66075 58.81075 140.99675 58.2495C141.33275 57.6885 141.50125 57.03075 141.50125 56.25325C141.50125 55.47575 141.33275 54.80725 140.99675 54.24625C140.66075 53.686 140.2015 53.25225 139.6185 52.94575C139.0355 52.64 138.35575 52.48625 137.601 52.48625C136.84625 52.48625 136.17575 52.639 135.5895 52.94575C135.003 53.25225 134.54325 53.68525 134.21125 54.24625C133.87825 54.8065 133.7125 55.48325 133.7125 56.25325C133.7125 57.0235 133.87825 57.6885 134.21125 58.2495C134.54325 58.80975 135.003 59.24375 135.5895 59.55025ZM139.0355 58.71975C138.61675 58.92875 138.13875 59.03375 137.601 59.03375C137.0775 59.03375 136.6035 58.92875 136.1775 58.71975C135.752 58.51075 135.416 58.20075 135.169 57.78925C134.92225 57.37875 134.799 56.8655 134.799 56.25325C134.799 55.641 134.92225 55.12875 135.169 54.71725C135.41525 54.3065 135.75125 53.99425 136.1775 53.781C136.6035 53.56775 137.0635 53.46125 137.601 53.46125C138.13875 53.46125 138.61675 53.56775 139.0355 53.781C139.45425 53.99425 139.786 54.3065 140.033 54.71725C140.28 55.12775 140.403 55.64025 140.403 56.25325C140.403 56.8665 140.28 57.37875 140.033 57.78925C139.786 58.2 139.45425 58.51075 139.0355 58.71975Z" fill="white"></path><path d="M144.06525 56.73775V58.924H148.75V59.88825H142.98925V52.61025H148.7385V53.5745H144.06525V55.79475H147.88725V56.73675L144.06525 56.73775Z" fill="white"></path><path fill-rule="evenodd" clip-rule="evenodd" d="M152.60275 52.61025L149.63325 59.88825H150.78775L151.499 58.08275H154.85875L155.57325 59.88825H156.73825L153.74575 52.61025H152.60275ZM154.47725 57.1185L153.175 53.82825L151.87875 57.1185H154.47725Z" fill="white"></path><path d="M157.1225 52.61025H163.4995V53.5745H160.85425V59.88825H159.76775V53.5745H157.1225V52.61025Z" fill="white"></path><path fill-rule="evenodd" clip-rule="evenodd" d="M165.63125 57.3765V59.88825H164.55525V52.61025H168.0185C168.377 52.61025 168.7115 52.66075 169.022 52.7615C169.3315 52.86225 169.605 53.0135 169.84025 53.216C170.07575 53.4175 170.259 53.668 170.3895 53.967C170.52 54.26625 170.586 54.614 170.586 55.00975C170.586 55.40575 170.52075 55.74275 170.3895 56.042C170.259 56.341 170.07575 56.58975 169.84025 56.788C169.605 56.98625 169.3325 57.13425 169.022 57.231C168.71225 57.3285 168.37775 57.3765 168.0185 57.3765H165.63125ZM165.63125 56.4345H168.06325C168.49675 56.4345 168.846 56.30375 169.111 56.042C169.37625 55.78 169.509 55.43625 169.509 55.00975C169.509 54.5835 169.37625 54.2215 169.111 53.967C168.846 53.7125 168.49675 53.58625 168.06325 53.58625H165.63125V56.4345Z" fill="white"></path><path fill-rule="evenodd" clip-rule="evenodd" d="M175.58875 60.0095C174.834 60.0095 174.1635 59.85675 173.57725 59.55025C172.991 59.24375 172.531 58.80975 172.199 58.2495C171.86625 57.6885 171.70025 57.0235 171.70025 56.25325C171.70025 55.48325 171.86625 54.8065 172.199 54.24625C172.531 53.68525 172.991 53.25225 173.57725 52.94575C174.1635 52.639 174.834 52.48625 175.58875 52.48625C176.34375 52.48625 177.02325 52.64 177.60625 52.94575C178.18925 53.25225 178.6485 53.686 178.9845 54.24625C179.3205 54.80725 179.489 55.47575 179.489 56.25325C179.489 57.03075 179.3205 57.6885 178.9845 58.2495C178.6485 58.81075 178.1885 59.24375 177.60625 59.55025C177.02325 59.85675 176.351 60.0095 175.58875 60.0095ZM175.58875 59.03375C176.1265 59.03375 176.6045 58.92875 177.02325 58.71975C177.442 58.51075 177.774 58.2 178.02075 57.78925C178.26775 57.37875 178.39075 56.8665 178.39075 56.25325C178.39075 55.64025 178.26775 55.12775 178.02075 54.71725C177.774 54.3065 177.442 53.99425 177.02325 53.781C176.6045 53.56775 176.1265 53.46125 175.58875 53.46125C175.05125 53.46125 174.59125 53.56775 174.16525 53.781C173.739 53.99425 173.403 54.3065 173.157 54.71725C172.91 55.12875 172.787 55.641 172.787 56.25325C172.787 56.8655 172.91 57.37875 173.157 57.78925C173.40375 58.20075 173.74 58.51075 174.16525 58.71975C174.59125 58.92875 175.06525 59.03375 175.58875 59.03375Z" fill="white"></path><path d="M184.1375 57.455L186.9055 52.61025H185.6735L183.61975 56.391L181.52625 52.61025H180.2935L183.0615 57.455V59.88825H184.1375V57.455Z" fill="white"></path><path d="M190.533 52.61025H191.609V59.88825H190.533V52.61025Z" fill="white"></path><path d="M197.11225 59.88825L193.00625 56.0505L196.63075 52.61025H195.14025L191.61 56.07575L195.59925 59.88825H197.11225Z" fill="white"></path><path d="M201.44625 57.455L204.2145 52.61025H202.98225L200.9285 56.391L198.83525 52.61025H197.60225L200.37025 57.455V59.88825H201.44625V57.455Z" fill="white"></path><path d="M205.35525 52.61025H212.25875V59.88825H211.172V53.5745H206.43125V59.88825H205.35525V52.61025Z" fill="white"></path><path fill-rule="evenodd" clip-rule="evenodd" d="M215.095 57.3765V59.88825H214.019V52.61025H217.4825C217.84075 52.61025 218.17525 52.66075 218.48575 52.7615C218.7955 52.86225 219.06875 53.0135 219.304 53.216C219.5395 53.4175 219.72275 53.668 219.85325 53.967C219.98375 54.26625 220.04975 54.614 220.04975 55.00975C220.04975 55.40575 219.9845 55.74275 219.85325 56.042C219.72275 56.341 219.5395 56.58975 219.304 56.788C219.06875 56.98625 218.79625 57.13425 218.48575 57.231C218.176 57.3285 217.84175 57.3765 217.4825 57.3765H215.095ZM215.095 56.4345H217.527C217.9605 56.4345 218.31 56.30375 218.575 56.042C218.84 55.78 218.973 55.43625 218.973 55.00975C218.973 54.5835 218.84 54.2215 218.575 53.967C218.31 53.7125 217.9605 53.58625 217.527 53.58625H215.095V56.4345Z" fill="white"></path><path fill-rule="evenodd" clip-rule="evenodd" d="M225.001 60.0095C224.24625 60.0095 223.57575 59.85675 222.9895 59.55025C222.403 59.24375 221.943 58.80975 221.61125 58.2495C221.27825 57.6885 221.11225 57.0235 221.11225 56.25325C221.11225 55.48325 221.27825 54.8065 221.61125 54.24625C221.943 53.68525 222.403 53.25225 222.9895 52.94575C223.57575 52.639 224.24625 52.48625 225.001 52.48625C225.75575 52.48625 226.4355 52.64 227.0185 52.94575C227.6015 53.25225 228.0605 53.686 228.39675 54.24625C228.73275 54.80725 228.90125 55.47575 228.90125 56.25325C228.90125 57.03075 228.73275 57.6885 228.39675 58.2495C228.0605 58.81075 227.60075 59.24375 227.0185 59.55025C226.4355 59.85675 225.76325 60.0095 225.001 60.0095ZM225.001 59.03375C225.5385 59.03375 226.01675 58.92875 226.4355 58.71975C226.854 58.51075 227.186 58.2 227.433 57.78925C227.68 57.37875 227.803 56.8665 227.803 56.25325C227.803 55.64025 227.68 55.12775 227.433 54.71725C227.186 54.3065 226.854 53.99425 226.4355 53.781C226.01675 53.56775 225.5385 53.46125 225.001 53.46125C224.4635 53.46125 224.0035 53.56775 223.57725 53.781C223.15125 53.99425 222.81525 54.3065 222.569 54.71725C222.32225 55.12875 222.199 55.641 222.199 56.25325C222.199 56.8655 222.32225 57.37875 222.569 57.78925C222.816 58.20075 223.152 58.51075 223.57725 58.71975C224.0035 58.92875 224.4775 59.03375 225.001 59.03375Z" fill="white"></path><path d="M233.5945 57.455L236.3625 52.61025H235.1305L233.07675 56.391L230.98325 52.61025H229.7505L232.5185 57.455V59.88825H233.5945V57.455Z" fill="white"></path><path d="M145.72275 9.05565L148.49075 4.2111H147.25875L145.205 7.9918L143.1115 4.2111H141.8785L144.64675 9.05565V11.4891H145.72275V9.05565Z" fill="white"></path><path fill-rule="evenodd" clip-rule="evenodd" d="M150.66625 11.4891V8.97715H153.0535C153.41275 8.97715 153.74725 8.929225 154.05675 8.831725C154.36725 8.73505 154.64 8.58715 154.87525 8.388825C155.1105 8.190525 155.294 7.941825 155.4245 7.6427C155.55575 7.343575 155.621 7.00645 155.621 6.61065C155.621 6.21485 155.55475 5.867 155.4245 5.567875C155.294 5.26875 155.1105 5.0184 154.87525 4.816775C154.64 4.614325 154.3665 4.463125 154.05675 4.362325C153.74625 4.2615 153.412 4.2111 153.0535 4.2111H149.59025V11.4891H150.66625ZM153.098 8.035175H150.66625V5.18695H153.098C153.53175 5.18695 153.881 5.313375 154.146 5.567875C154.41125 5.822375 154.544 6.1843 154.544 6.61065C154.544 7.037025 154.41125 7.38075 154.146 7.6427C153.881 7.904625 153.53175 8.035175 153.098 8.035175Z" fill="white"></path><path fill-rule="evenodd" clip-rule="evenodd" d="M157.01925 4.2111V11.487425H158.09525V8.594575H160.415C160.84775 8.594575 161.18375 8.62845 161.42325 8.6954C161.66275 8.76315 161.83025 8.878825 161.92775 9.04325C162.0245 9.2077 162.07325 9.43575 162.07325 9.727425V11.48825H163.16075V9.694375C163.16075 9.27545 163.07975 8.9598 162.9195 8.746625C162.7585 8.53345 162.529 8.38635 162.23 8.303725C162.03075 8.2492 161.8 8.20935 161.5375 8.18445C161.704 8.156675 161.86375 8.118 162.017 8.068225C162.27125 7.9856 162.49175 7.869925 162.6785 7.720375C162.865 7.5708 163.013 7.3824 163.121 7.15435C163.22925 6.9263 163.28375 6.64785 163.28375 6.318975C163.28375 5.84055 163.183 5.4464 162.9815 5.135725C162.78 4.825875 162.49025 4.5945 162.11275 4.4408C161.7355 4.28795 161.28525 4.2111 160.7625 4.2111H157.01925ZM160.7625 7.653425H158.09525V5.18695H160.7625C161.24075 5.18695 161.6015 5.28775 161.8445 5.489375C162.08725 5.691 162.2085 5.9645 162.2085 6.35285C162.2085 6.7412 162.08725 7.056025 161.8445 7.294825C161.6015 7.533625 161.24075 7.653425 160.7625 7.653425Z" fill="white"></path><path d="M170.4485 8.56235V4.2111H171.5245V8.606975C171.5245 9.040775 171.47 9.4217 171.36175 9.750575C171.2535 10.079425 171.09825 10.363675 170.89675 10.602475C170.69525 10.8421 170.4575 11.034625 170.185 11.18005C169.9125 11.325475 169.6095 11.43455 169.2775 11.5056C168.94475 11.576675 168.592 11.6122 168.21875 11.6122C167.8455 11.6122 167.468 11.576675 167.13125 11.5056C166.795 11.43455 166.487 11.3263 166.20625 11.18005C165.9265 11.034625 165.68675 10.8421 165.48875 10.602475C165.2905 10.363675 165.13775 10.079425 165.0295 9.750575C164.9215 9.4217 164.867 9.040775 164.867 8.606975V4.2111H165.94275V8.56235C165.94275 9.1234 166.04525 9.553075 166.251 9.8522C166.4565 10.151325 166.73075 10.357075 167.07425 10.468625C167.41775 10.581 167.79925 10.637175 168.21725 10.637175C168.635 10.637175 168.99 10.581 169.327 10.468625C169.663 10.35625 169.934 10.151325 170.1395 9.8522C170.34525 9.553075 170.4485 9.1234 170.4485 8.56235Z" fill="white"></path><path d="M172.828 9.614C172.7795 9.405375 172.76625 9.233775 172.789 9.0992H173.81825C173.8405 9.3909 173.9395 9.654475 174.1155 9.889975C174.2905 10.125475 174.53 10.31055 174.833 10.44525C175.13625 10.579925 175.48875 10.64685 175.8925 10.64685C176.2435 10.64685 176.535 10.5981 176.767 10.501425C176.99825 10.40475 177.1725 10.271725 177.28825 10.10315C177.40375 9.9346 177.4615 9.734625 177.4615 9.503275C177.4615 9.2719 177.398 9.086825 177.27075 8.948C177.14375 8.81 176.953 8.694325 176.6995 8.600125C176.445 8.50675 176.13125 8.41505 175.758 8.324975C175.42925 8.243175 175.1055 8.144025 174.7885 8.0275C174.4705 7.911825 174.179 7.76805 173.914 7.59535C173.649 7.4235 173.436 7.2161 173.27475 6.97315C173.11375 6.730225 173.03375 6.4369 173.03375 6.09315C173.03375 5.7271 173.1345 5.392475 173.33675 5.089225C173.53825 4.7868 173.8355 4.54385 174.22775 4.360425C174.62 4.176975 175.0965 4.085275 175.6565 4.085275C176.52275 4.085275 177.1785 4.302575 177.6235 4.73555C178.06775 5.169375 178.2825 5.7486 178.2675 6.474075H177.25925C177.237 5.9659 177.076 5.601525 176.777 5.3809C176.478 5.160275 176.08925 5.050375 175.61175 5.050375C175.2005 5.050375 174.8495 5.13465 174.558 5.3024C174.2665 5.47095 174.12125 5.733725 174.12125 6.09315C174.12125 6.25015 174.15525 6.3865 174.222 6.502175C174.289 6.61785 174.40125 6.72445 174.558 6.82195C174.715 6.91945 174.9265 7.012825 175.1915 7.102075C175.4565 7.192125 175.787 7.2888 176.18325 7.39375C176.48225 7.460675 176.77125 7.547425 177.052 7.65155C177.332 7.756475 177.58475 7.88705 177.8085 8.044025C178.03225 8.201025 178.20975 8.40265 178.341 8.6497C178.4715 8.896775 178.53775 9.1992 178.53775 9.5578C178.53775 9.93955 178.44425 10.28495 178.25775 10.5948C178.071 10.90465 177.78125 11.151725 177.389 11.33515C176.99675 11.5186 176.4905 11.610325 175.87025 11.610325C175.37725 11.610325 174.9495 11.5467 174.587 11.41945C174.2245 11.2922 173.92225 11.12775 173.6795 10.92615C173.43675 10.724525 173.246 10.507225 173.108 10.27585C172.96925 10.0445 172.876 9.823875 172.828 9.614Z" fill="white"></path><path d="M134.30125 14.33635H135.37725V21.61435H134.30125V14.33635Z" fill="white"></path><path d="M143.206 20.04895V14.33635H144.2935V21.61435H143.206L138.44275 15.922675V21.61435H137.36675V14.33635H138.44275L143.206 20.04895Z" fill="white"></path><path d="M145.364 14.33635H151.741V15.30065H149.09575V21.61435H148.00925V15.30065H145.364V14.33635Z" fill="white"></path><path d="M153.9055 20.650075V18.4637L157.72725 18.462875V17.5209H153.9055V15.30065H158.5785V14.33635H152.8295V21.61435H158.59025V20.650075H153.9055Z" fill="white"></path><path fill-rule="evenodd" clip-rule="evenodd" d="M160.14825 21.6127V14.33635H163.89175C164.4145 14.33635 164.8645 14.4132 165.24175 14.566075C165.61925 14.71975 165.909 14.951125 166.1105 15.260975C166.312 15.571675 166.41275 15.9658 166.41275 16.444225C166.41275 16.7731 166.35825 17.05155 166.25025 17.279625C166.142 17.507675 165.99425 17.696075 165.8075 17.845625C165.621 17.995175 165.4005 18.110875 165.146 18.1935C164.99275 18.24325 164.833 18.281925 164.6665 18.3097C164.929 18.3346 165.15975 18.37445 165.359 18.429C165.658 18.511625 165.8875 18.6587 166.04875 18.871875C166.20875 19.085075 166.28975 19.4007 166.28975 19.81965V21.613525H165.20225V19.8527C165.20225 19.561 165.1535 19.33295 165.05675 19.168525C164.9595 19.004075 164.79175 18.8884 164.55225 18.82065C164.31275 18.753725 163.97675 18.71985 163.544 18.71985H161.22425V21.6127H160.14825ZM161.22425 17.7787H163.89175C164.36975 17.7787 164.73075 17.658875 164.9735 17.420075C165.21625 17.181275 165.33775 16.866475 165.33775 16.4781C165.33775 16.08975 165.21625 15.81625 164.9735 15.614625C164.73075 15.413025 164.36975 15.312225 163.89175 15.312225H161.22425V17.7787Z" fill="white"></path><path d="M173.81275 20.04895V14.33635H174.90025V21.61435H173.81275L169.0495 15.922675V21.61435H167.9735V14.33635H169.0495L173.81275 20.04895Z" fill="white"></path><path fill-rule="evenodd" clip-rule="evenodd" d="M176.021 21.61435L178.9905 14.33635H180.1335L183.126 21.61435H181.961L181.2465 19.8089H177.88675L177.1755 21.61435H176.021ZM178.2665 18.8446H180.86475L179.56275 15.5542L178.2665 18.8446Z" fill="white"></path><path d="M189.13975 14.33635H182.763V15.30065H185.408V21.61435H186.49475V15.30065H189.13975V14.33635Z" fill="white"></path><path d="M190.4365 14.33635H191.5125V21.61435H190.4365V14.33635Z" fill="white"></path><path fill-rule="evenodd" clip-rule="evenodd" d="M195.08275 21.279675C195.669 21.586225 196.33975 21.7391 197.0945 21.7391C197.85675 21.7391 198.52875 21.586225 199.11175 21.279675C199.694 20.973125 200.154 20.54015 200.49 19.9791C200.82625 19.41805 200.99475 18.7603 200.99475 17.982775C200.99475 17.205225 200.82625 16.53675 200.49 15.9757C200.154 15.415475 199.69475 14.981675 199.11175 14.675125C198.52875 14.3694 197.84925 14.2157 197.0945 14.2157C196.33975 14.2157 195.669 14.368575 195.08275 14.675125C194.4965 14.981675 194.0365 15.41465 193.7045 15.9757C193.37175 16.535925 193.20575 17.212675 193.20575 17.982775C193.20575 18.752875 193.37175 19.41805 193.7045 19.9791C194.0365 20.539325 194.4965 20.973125 195.08275 21.279675ZM198.52875 20.44925C198.11025 20.6583 197.632 20.76325 197.0945 20.76325C196.57075 20.76325 196.09675 20.6583 195.67075 20.44925C195.2455 20.2402 194.90925 19.93035 194.6625 19.51885C194.4155 19.108175 194.2925 18.59505 194.2925 17.982775C194.2925 17.370475 194.4155 16.858175 194.6625 16.4467C194.9085 16.036025 195.24475 15.723675 195.67075 15.5105C196.09675 15.297325 196.55675 15.190725 197.0945 15.190725C197.632 15.190725 198.11025 15.297325 198.52875 15.5105C198.9475 15.723675 199.2795 16.036025 199.5265 16.4467C199.77325 16.85735 199.89625 17.36965 199.89625 17.982775C199.89625 18.595875 199.77325 19.108175 199.5265 19.51885C199.2795 19.929525 198.9475 20.2402 198.52875 20.44925Z" fill="white"></path><path d="M208.27875 14.33635V20.04895L203.51575 14.33635H202.43975V21.61435H203.51575V15.922675L208.27875 21.61435H209.3665V14.33635H208.27875Z" fill="white"></path><path fill-rule="evenodd" clip-rule="evenodd" d="M213.42375 14.33635L210.45425 21.61435H211.60875L212.32 19.8089H215.67975L216.39425 21.61435H217.5595L214.56675 14.33635H213.42375ZM215.29825 18.8446H212.7L213.99625 15.554225L215.29825 18.8446Z" fill="white"></path><path d="M219.7205 14.33635V20.650075H224.0015V21.61435H218.6445V14.33635H219.7205Z" fill="white"></path><path d="M139.755 24.465075H133.37825V25.42925H136.02325V31.743H137.11V25.42925H139.755V24.465075Z" fill="white"></path><path d="M140.811 24.465075H141.887V27.6165H146.62775V24.465075H147.7145V31.743H146.62775V28.5925H141.887V31.743H140.811V24.465075Z" fill="white"></path><path d="M150.57825 30.77875V28.5925L154.4 28.5915V27.6495H150.57825V25.42925H155.2515V24.465075H149.50225V31.743H155.263V30.77875H150.57825Z" fill="white"></path><path fill-rule="evenodd" clip-rule="evenodd" d="M156.17025 31.743L159.13975 24.465075H160.28275L163.2755 31.743H162.11025L161.39575 29.9375H158.036L157.32475 31.743H156.17025ZM158.416 28.97325H161.01425L159.71225 25.683L158.416 28.97325Z" fill="white"></path><path d="M169.2995 24.465075H162.92275V25.42925H165.56775V31.743H166.6545V25.42925H169.2995V24.465075Z" fill="white"></path><path fill-rule="evenodd" clip-rule="evenodd" d="M170.34825 31.7415V24.465075H174.09175C174.6145 24.465075 175.0645 24.5419 175.44175 24.694775C175.81925 24.848475 176.109 25.07975 176.3105 25.38975C176.512 25.7005 176.61275 26.0945 176.61275 26.573C176.61275 26.90175 176.55825 27.18025 176.45025 27.40825C176.342 27.6365 176.19425 27.82475 176.0075 27.97425C175.821 28.124 175.6005 28.2395 175.346 28.32225C175.19275 28.372 175.033 28.41075 174.8665 28.4385C175.129 28.46325 175.35975 28.50325 175.559 28.55775C175.858 28.64025 176.0875 28.7875 176.24875 29.0005C176.40875 29.21375 176.48975 29.5295 176.48975 29.94825V31.74225H175.40225V29.9815C175.40225 29.68975 175.3535 29.46175 175.25675 29.29725C175.1595 29.13275 174.99175 29.017 174.75225 28.94925C174.51275 28.8825 174.17675 28.8485 173.744 28.8485H171.42425V31.7415H170.34825ZM171.42425 27.9075H174.09175C174.56975 27.9075 174.93075 27.7875 175.1735 27.54875C175.41625 27.31 175.53775 26.99525 175.53775 26.60675C175.53775 26.2185 175.41625 25.945 175.1735 25.74325C174.93075 25.54175 174.56975 25.441 174.09175 25.441H171.42425V27.9075Z" fill="white"></path><path d="M179.23925 30.77875V28.5925L183.061 28.5915V27.6495H179.23925V25.42925H183.9125V24.465075H178.16325V31.743H183.924V30.77875H179.23925Z" fill="white"></path><path d="M193.70775 24.4659V25.43025H189.0345V27.695H192.85625V28.637H189.0345V31.743H187.9585V24.465075L193.70775 24.4659Z" fill="white"></path><path d="M195.98675 30.77875V28.5925L199.8085 28.5915V27.6495H195.98675V25.42925H200.65975V24.465075H194.91075V31.743H200.6715V30.77875H195.98675Z" fill="white"></path><path d="M201.753 29.3565C201.73025 29.49125 201.7435 29.66275 201.792 29.8715C201.84 30.08125 201.93325 30.302 202.072 30.53325C202.21 30.76475 202.40075 30.982 202.6435 31.1835C202.88625 31.38525 203.1885 31.5495 203.551 31.67675C203.9135 31.804 204.34125 31.86775 204.83425 31.86775C205.4545 31.86775 205.96075 31.776 206.353 31.5925C206.74525 31.40925 207.035 31.162 207.22175 30.85225C207.40825 30.54225 207.50175 30.197 207.50175 29.81525C207.50175 29.4565 207.4355 29.15425 207.305 28.907C207.17375 28.66 206.99625 28.4585 206.7725 28.3015C206.54875 28.1445 206.296 28.014 206.016 27.909C205.73525 27.80475 205.44625 27.718 205.14725 27.65125C204.751 27.54625 204.4205 27.4495 204.1555 27.3595C203.8905 27.27025 203.679 27.17675 203.52225 27.07925C203.36525 26.98175 203.253 26.87525 203.186 26.7595C203.11925 26.644 203.08525 26.5075 203.08525 26.3505C203.08525 25.99125 203.2305 25.7285 203.52225 25.55975C203.81375 25.392 204.1645 25.30775 204.57575 25.30775C205.05325 25.30775 205.442 25.41775 205.741 25.63825C206.04 25.859 206.201 26.22325 206.22325 26.7315H207.2315C207.2465 26.006 207.03175 25.42675 206.5875 24.992975C206.14225 24.56 205.48675 24.342675 204.6205 24.342675C204.0605 24.342675 203.584 24.4344 203.19175 24.61785C202.7995 24.801275 202.50225 25.04425 202.30075 25.34675C202.0985 25.65 201.99775 25.9845 201.99775 26.3505C201.99775 26.69425 202.07775 26.98775 202.23875 27.2305C202.39975 27.4735 202.613 27.681 202.878 27.85275C203.143 28.0255 203.4345 28.16925 203.7525 28.285C204.0695 28.4015 204.39325 28.5005 204.722 28.5825C205.09525 28.6725 205.409 28.76425 205.6635 28.8575C205.917 28.95175 206.10775 29.0675 206.23475 29.2055C206.362 29.34425 206.4255 29.52925 206.4255 29.76075C206.4255 29.992 206.36775 30.192 206.25225 30.3605C206.1365 30.52925 205.96225 30.66225 205.73125 30.75875C205.499 30.8555 205.2075 30.90425 204.8565 30.90425C204.45275 30.90425 204.10025 30.83725 203.797 30.70275C203.494 30.568 203.2545 30.383 203.0795 30.1475C202.9035 29.912 202.8045 29.64825 202.78225 29.3565H201.753Z" fill="white"></path><path d="M214.51325 24.465075H208.13625V25.42925H210.78125V31.743H211.868V25.42925H214.51325V24.465075Z" fill="white"></path><path d="M215.79975 24.465075H216.87575V31.743H215.79975V24.465075Z" fill="white"></path><path d="M218.20725 24.465075L221.043 31.743H222.276L225.08925 24.465075H223.935L221.6595 30.45925L219.384 24.465075H218.20725Z" fill="white"></path><path fill-rule="evenodd" clip-rule="evenodd" d="M225.51575 31.743L228.48525 24.465075H229.62825L232.621 31.743H231.45575L230.74125 29.9375H227.3815L226.67025 31.743H225.51575ZM229.05775 25.683L230.35975 28.97325H227.7615L229.05775 25.683Z" fill="white"></path><path d="M234.8285 30.77875V24.465075H233.7525V31.743H239.1095V30.77875H234.8285Z" fill="white"></path></svg> 