<?xml version="1.0" encoding="UTF-8"?> <svg xmlns="http://www.w3.org/2000/svg" viewBox="0 0 1098.828125 525.9814453125" fill="none"> <path d="M14.784337483649908 79.44082413344518L14.135014048637967 79.41582804324955L17.406552325622727 68.92696867535827H20.0038210695803L15.683396855806414 81.38876944239081H13.435773421505345L9.664763270231461 70.72518740403207H10.339057799348838L6.51810545986408 81.38876944239081H4.270482025563012L0 68.92696867535827H2.6222148419728164L5.793868742535827 79.41582804324955L5.1445453075238845 79.44082413344518L8.590906239336897 68.92696867535827H11.412914830243402L14.784337483649908 79.44082413344518Z" fill="white"></path> <path d="M31.224615950580073 77.3431522442277H33.49726047116697C33.36403131042425 78.15877466731119 33.0478307694495 78.89141007094517 32.54840888734076 79.5408084942277C32.048737044330075 80.18995695660828 31.39133987218494 80.70612621914809 30.575467488199497 81.08906632094516C29.759595104214057 81.47200642274227 28.802244849721337 81.6634764736408 27.703416724721336 81.6634764736408C26.404869839058232 81.6634764736408 25.247800823902413 81.38876944239081 24.23213469098328 80.8393553798908C23.216543546334737 80.2899413173908 22.41739354669017 79.53230982356118 21.834684692049592 78.56671085930391C21.251975837409006 77.60111189504663 20.960596413998523 76.477287679851 20.960596413998523 75.195238213717C20.960596413998523 73.8966913280539 21.24365213937386 72.76461840309372 21.809713597944153 71.79901943883644C22.375775056514446 70.81667309414809 23.158277660088714 70.05079289055391 24.15722140866697 69.5013788280539C25.15606517288444 68.95196476555391 26.296636768511146 68.67725773430391 27.57868623464513 68.67725773430391C28.9272253006995 68.67725773430391 30.05929822565969 68.94371605578935 30.974905009525703 69.47638273785829C31.890761754293674 70.0090494199272 32.56490630686988 70.79992571371702 32.99783858905823 71.84876165832574C33.4472682907757 72.88110018340537 33.63048963190969 74.17139835930392 33.54725265155824 75.71990614692334H23.33310031491697C23.416337295268427 76.46903897008643 23.641102138307552 77.1349348128981 24.00736984794415 77.71759367535827C24.39030994974124 78.30050249872042 24.88978182403037 78.75818091020246 25.50576047472134 79.09112883160827C26.13841151757279 79.42407675301409 26.86279821144222 79.59080067461898 27.678420634525704 79.59080067461898C28.594277379293676 79.59080067461898 29.36015758288785 79.38258324328935 29.976061245308234 78.96639834153207C30.591964907728617 78.5502134397748 31.00839977038785 78.00904808703935 31.224615950580073 77.3431522442277ZM27.603682324840765 70.72518740403207C26.52135161936988 70.72518740403207 25.622242255032983 71.01639185481119 24.90642922010066 71.59905071727137C24.19051620080755 72.16521216020246 23.71601542062386 72.92284365403208 23.482926879549588 73.87169523785828H31.14987764089513C31.083138080072793 72.85610409320974 30.716945358706777 72.081975179851 30.05104951589513 71.54930849778208C29.38490371218153 70.99989443528207 28.569281289098043 70.72518740403207 27.603682324840765 70.72518740403207Z" fill="white"></path> <path d="M1053.2577529643424 0H1055.6573776231232V17.456519509923794H1053.2577529643424V0Z" fill="white"></path> <path d="M1065.100900499033 17.731226541173797C1063.8860905155254 17.731226541173797 1062.7687652837806 17.473166905994084 1061.753924021838 16.95704763563467C1060.7390827598954 16.44092836527525 1059.9317090465765 15.700044251876706 1059.3318028818812 14.734395295439036C1058.7318967171861 13.768746339001364 1058.4319436348385 12.611652327755346 1058.4319436348385 11.263063269520586C1058.4319436348385 9.897851811305733 1058.7318967171861 8.732409105934371 1059.3318028818812 7.766785145586897C1059.9317090465765 6.784488793078935 1060.7390827598954 6.035280981645245 1061.753924021838 5.519161711285828C1062.7687652837806 5.00304244092641 1063.8860905155254 4.744982805746702 1065.100900499033 4.744982805746702C1066.315710482541 4.744982805746702 1067.4230372782074 5.00304244092641 1068.4228808860325 5.519161711285828C1069.4202248848385 6.035280981645245 1070.2200997710988 6.784488793078935 1070.820005935794 7.766785145586897C1071.4199121004892 8.732409105934371 1071.717365573817 9.897851811305733 1071.717365573817 11.263063269520586C1071.717365573817 12.611652327755346 1071.4199121004892 13.768746339001364 1070.820005935794 14.734395295439036C1070.2200997710988 15.700044251876706 1069.4202248848385 16.44092836527525 1068.4228808860325 16.95704763563467C1067.4230372782074 17.473166905994084 1066.315710482541 17.731226541173797 1065.100900499033 17.731226541173797ZM1065.100900499033 15.658400765610782C1065.8482835958828 15.658400765610782 1066.5406752943015 15.491926804907871 1067.173076376251 15.158953887411851C1067.8229747213375 14.809308577755345 1068.3378941793676 14.30983670346622 1068.7203343593608 13.660538264544472C1069.1202718024908 12.994567433462239 1069.3202405240559 12.195417433817674 1069.3202405240559 11.263063269520586C1069.3202405240559 10.314086705243403 1069.1202718024908 9.506588011473498 1068.7203343593608 8.84064217648146C1068.3378941793676 8.174671345399226 1067.8229747213375 7.666875773074954 1067.173076376251 7.317255459508644C1066.5406752943015 6.967610149852138 1065.8482835958828 6.792812491114081 1065.100900499033 6.792812491114081C1064.3510177931641 6.792812491114081 1063.6511272676867 6.967610149852138 1063.0037285316198 7.317255459508644C1062.353830186533 7.650228377004662 1061.8289122924248 8.14970025129379 1061.4289748492947 8.815671082376024C1061.0290374061647 9.481616917368061 1060.8290686845994 10.297414313082916 1060.8290686845994 11.263063269520586C1060.8290686845994 12.195417433817674 1061.021538579106 12.994567433462239 1061.4039787590991 13.660538264544472C1061.8039162022294 14.30983670346622 1062.3288340963375 14.809308577755345 1062.978732441424 15.158953887411851C1063.6261311774908 15.491926804907871 1064.3335205300273 15.658400765610782 1065.100900499033 15.658400765610782Z" fill="white"></path> <path d="M1079.2561863768196 15.60845857739991H1078.4813075807554L1082.5281745834282 4.994718742891265H1085.1252683547543L1080.0060690826888 17.456519509923794H1077.7589205741015L1072.6872138734077 4.994718742891265H1075.3118033439491L1079.2561863768196 15.60845857739991Z" fill="white"></path> <path d="M1096.3535120706324 13.410802327399908H1098.6256566694153C1098.4931773913784 14.226599723114763 1098.175727045894 14.959160138478161 1097.6758052419814 15.60845857739991C1097.1758834380687 16.25778201241185 1096.5184862659237 16.77390128277127 1095.703613725546 17.156816388478163C1094.8887411851683 17.53975649027525 1093.9313909306754 17.731226541173797 1092.831562962068 17.731226541173797C1091.5317662718949 17.731226541173797 1090.3769469048566 17.456519509923794 1089.3596060338944 16.9070804513336C1088.3447647719518 16.357666388833596 1087.5448898856914 15.600134879364763 1086.9624809841332 14.634485922927093C1086.380072082575 13.668861962579617 1086.087617827286 12.545037747383986 1086.087617827286 11.263063269520586C1086.087617827286 9.964441395586896 1086.3725732555163 8.832318478446314 1086.9374848939376 7.866669522008643C1087.5048961413784 6.884373169500682 1088.2872737645018 6.118517961996702 1089.2846177633076 5.569103899496701C1090.2844613711327 5.019689836996702 1091.4242830840537 4.744982805746702 1092.7065825110897 4.744982805746702C1094.0563713816537 4.744982805746702 1095.1861946584963 5.011366138961556 1096.1035511686762 5.544132805391264C1097.0184080698361 6.0768994718209735 1097.6933025051183 6.867725773430391 1098.1257348655026 7.9166117102195175C1098.5756644890241 8.948850250938353 1098.7581359474523 10.239148426836897 1098.6756488498067 11.787506237915151H1088.462246395871C1088.5447334935168 12.53671404934884 1088.7696983052776 13.202684880431073 1089.1346412221337 13.785393735071654C1089.5195810111466 14.368102589712239 1090.0170032060396 14.825955973825636 1090.6344066338718 15.158953887411851C1091.2668077158212 15.491926804907871 1091.9916943314945 15.658400765610782 1092.806566871872 15.658400765610782C1093.7214237730323 15.658400765610782 1094.4888037420383 15.450308314732142 1095.1037075608508 15.03407342079447C1095.7211109886828 14.6178385268568 1096.1360460859303 14.076748162391947 1096.3535120706324 13.410802327399908ZM1092.731578601285 6.792812491114081C1091.6492478958144 6.792812491114081 1090.7493886487716 7.084166918434372 1090.0345004691765 7.666875773074954C1089.3196122895813 8.232937231645245 1088.8446865758644 8.99046874111408 1088.612222937045 9.93947030148146H1096.2785238000456C1096.211034356517 8.923879156832916 1095.846091439661 8.14970025129379 1095.1786958314376 7.616933584864081C1094.5137998322336 7.067519522364081 1093.6964276828367 6.792812491114081 1092.731578601285 6.792812491114081Z" fill="white"></path> <path d="M82.16289835574953 386.58953096565057H90.22938662278207V388.6642064518881H82.16289835574953V386.58953096565057ZM85.00995302903208 383.2950462778662H87.38233194949954V399.0525815371929H85.00995302903208V383.2950462778662Z" fill="white"></path> <path d="M102.16451976939263 399.0525815371929V391.5362572153663C102.16451976939263 390.86886160714283 102.05628669884554 390.31894762283895 101.83982055775137 389.8865152624545C101.6233544166572 389.45408290207 101.29865520501592 389.1291337295268 100.86572292282757 388.9141673538444C100.43304060154118 388.67920410600544 99.88337657813922 388.56422209110553 99.21748073532757 388.56422209110553C98.48509529259555 388.56422209110553 97.81070077911737 388.73919472247496 97.19479711669699 389.0866403761942C96.59539087380573 389.42158798481574 96.10421770146155 389.8790164353958 95.72127759966446 390.461425336954C95.33833749786739 391.02633697537533 95.10512397634213 391.6687364934031 95.02188699599067 392.38362467299817L94.99689090579504 390.9613471408667C95.08037784704844 390.3114487957802 95.25510051751591 389.70404380402636 95.52155883900137 389.1366325565855C95.80451458001592 388.5717209181642 96.15420988185282 388.07929794131024 96.5703947836101 387.6643628440628C97.00332706579846 387.2469281377957 97.50274894790718 386.9244785742721 98.0686604299363 386.6895153264331C98.63482187286738 386.4570516876137 99.25072553528776 386.3395700636942 99.91687133900136 386.3395700636942C100.6160119817732 386.3395700636942 101.24866302462465 386.4395544244768 101.81482446755572 386.6395231460418C102.38073594958485 386.8244942134895 102.86366041216446 387.11444885975885 103.26334789439262 387.51438630288897C103.67953279614991 387.89682648288215 103.99573333712466 388.3717521965992 104.21219947821884 388.93666383502045C104.428665619313 389.4865778193244 104.5368986898601 390.11897890127386 104.5368986898601 390.8363666898885V399.0525815371929H102.16451976939263ZM92.79923465579503 399.0525815371929V381.5953121445632H95.17186353716447V399.0525815371929H92.79923465579503Z" fill="white"></path> <path d="M117.30840101441652 395.00571453452H119.58104553500341C119.44781637426068 395.82308668391715 119.13136587238398 396.5554721266492 118.63194399027525 397.20537047173565C118.13252210816651 397.85276920780257 117.47487497511942 398.3701882748521 116.65900259113398 398.7526284548453C115.84313020714853 399.1350686348385 114.88577995265582 399.32753852934485 113.78695182765581 399.32753852934485C112.48840494199271 399.32753852934485 111.33133592683689 399.0525815371929 110.31574478218835 398.50266755288897C109.30015363753981 397.952753568585 108.50102863398544 397.1953720356574 107.91836977152525 396.230522954106C107.3354609481631 395.26567387255454 107.04425649738398 394.1408498137511 107.04425649738398 392.8585503867152C107.04425649738398 391.5612533055619 107.32721223839853 390.4289304196997 107.89337368132962 389.46158172912874C108.45928516335873 388.4792353844404 109.24191274738398 387.714355024454 110.24075651160145 387.16444104015017C111.23985023672088 386.6145270558462 112.38017187144563 386.3395700636942 113.66222133757962 386.3395700636942C115.01076040363398 386.3395700636942 116.14283332859418 386.60702822878756 117.05869007336214 387.13944494995445C117.97429685722815 387.67186167112146 118.64869137070632 388.46423773032296 119.08137369199271 389.51157390952C119.53105335461214 390.54391243459963 119.71402473484417 391.8337106886942 119.63078775449272 393.3834682808235H109.41663541785145C109.49987239820291 394.13335098669245 109.72458724906164 394.79824698589624 110.09102993132962 395.3806558874545C110.47397003312669 395.9630647890127 110.97339191523544 396.4204932395928 111.58929557765582 396.7554408482143C112.22194662050728 397.08788884781615 112.9463333143767 397.25286304310737 113.76220569836214 397.25286304310737C114.67781248222816 397.25286304310737 115.44369268582233 397.0453954944836 116.0595963482427 396.6304603972361C116.67574997156505 396.213025690969 117.09193487332233 395.6731101427434 117.30840101441652 395.00571453452ZM113.68721742777524 388.3892494597361C112.60488672230437 388.3892494597361 111.70602731886943 388.67920410600544 110.99013929566651 389.26161300756365C110.27400131156165 389.8290242550045 109.79957551964854 390.58640578793216 109.56661195902524 391.5362572153663H117.23341274382962C117.16692314390923 390.518916344404 116.80048046164126 389.74653715735894 116.1345846188296 389.2116208271724C115.46868877601797 388.6642064518881 114.65281639203252 388.3892494597361 113.68721742777524 388.3892494597361Z" fill="white"></path> <path d="M127.3003381092186 399.30254243914925C126.23475478417879 399.30254243914925 125.260657149255 399.02758544699725 124.37829516534917 398.47767146269337C123.49593318144335 397.9277574783894 122.79679253867151 397.1703759454618 122.2806232761317 396.20552686391034C121.7644540135919 395.223180519222 121.50649436277297 394.0983564604186 121.50649436277297 392.83355429651954C121.50649436277297 391.56875213262055 121.7644540135919 390.4539265098953 122.2806232761317 389.4865778193244C122.81328995820063 388.504231474636 123.53767665207006 387.7393511146497 124.45328343593607 387.18943713034577C125.36889021980208 386.6245254919245 126.39298003511715 386.3395700636942 127.52505296007735 386.3395700636942C128.77385762625116 386.3395700636942 129.7394565905084 386.63202431898316 130.42209981375112 387.21443322054137C131.12124045652297 387.79684212209963 131.6041649191026 388.57921974522293 131.87037327968608 389.56156608991125C132.15357898160258 390.54391243459963 132.29505685210987 391.63624157614873 132.29505685210987 392.83355429651954C132.29505685210987 393.5009499047429 132.2118198717584 394.2083392572793 132.0453459110555 394.95572235412874C131.8788719503526 395.7056050599977 131.61241362886716 396.41299441253415 131.24622090750114 397.0803900207575C130.87977822523317 397.7452860199613 130.3721076333599 398.285201568187 129.72270921007734 398.702636274454C129.07331078679482 399.10257371758416 128.2659370734759 399.30254243914925 127.3003381092186 399.30254243914925ZM127.97448266179481 397.22786695291177C128.8570946066026 397.22786695291177 129.59797872000112 397.03789666742495 130.19713500199043 396.6554564874317C130.8132886253128 396.2555190443016 131.27096703679481 395.7231023231347 131.57067015824043 395.05570671491125C131.87037327968608 394.39081071570746 132.02034982085988 393.64842683689716 132.02034982085988 392.83355429651954C132.02034982085988 391.9511923126137 131.8621245699215 391.17631351654916 131.5456740680448 390.5114175173453C131.24622090750114 389.84402190912186 130.78829253511714 389.3291024510919 130.1721389117948 388.96165992521605C129.57298262980552 388.59671700835986 128.84034722617153 388.41424554993176 127.97448266179481 388.41424554993176C126.67593577613171 388.41424554993176 125.66859334124771 388.8291806471792 124.9527053180448 389.6615504506938C124.25356467527297 390.4939202542084 123.90386937343607 391.5512548694836 123.90386937343607 392.83355429651954C123.90386937343607 393.6984190172884 124.07859204390354 394.4657989862943 124.42828734574044 395.13069498549817C124.77798264757733 395.78059333058457 125.25240843949045 396.29801239763424 125.8518146823817 396.68045257762736C126.46771834480208 397.0453954944836 127.17535765824044 397.22786695291177 127.97448266179481 397.22786695291177ZM132.02034982085988 386.58953096565057H134.41772483152297V399.0525815371929H132.22006858152295C132.22006858152295 399.0525815371929 132.20332120109188 398.9026049960191 132.17007640113172 398.60265191367154C132.1368316011715 398.285201568187 132.10358680121132 397.9127598242721 132.07034200125113 397.47782785486805C132.036847240389 397.0453954944836 132.02034982085988 396.66295531449043 132.02034982085988 396.3305073148885V386.58953096565057Z" fill="white"></path> <path d="M136.67062244085534 386.58953096565057H144.73711070788784V388.6642064518881H136.67062244085534V386.58953096565057ZM139.51767711413785 383.2950462778662H141.89005603460532V399.0525815371929H139.51767711413785V383.2950462778662Z" fill="white"></path> <path d="M147.00725561945518 386.58953096565057H149.40488059102023V399.0525815371929H147.00725561945518V386.58953096565057ZM153.62522045965082 388.7141986322793C152.75960585617608 388.7141986322793 152.0187217427775 388.91166774482485 151.4025681194552 389.31160518795497C150.80341183746586 389.711542631085 150.32048737488626 390.203965607939 149.95429465352024 390.7863745094973C149.60459935168333 391.3687834110555 149.3713858301581 391.9261962224181 149.25490404984646 392.458612943585L149.22990795965083 391.0363354114536C149.2466553400819 390.86886160714283 149.28814884980665 390.6114018781278 149.35488841062897 390.26145661538897C149.43812539098045 389.8940140895132 149.57960326148773 389.4865778193244 149.7793220221508 389.036648195803C149.97929074371586 388.58921818130113 150.24549910429937 388.1642846479754 150.57844702570517 387.7643472048453C150.91164490801296 387.34691249857826 151.32782980977024 387.0069656719176 151.82725169187898 386.7395075068244C152.32667357398773 386.4745489507507 152.92607981687897 386.3395700636942 153.62522045965082 386.3395700636942V388.7141986322793Z" fill="white"></path> <path d="M165.40187839442106 395.00571453452H167.67452291500794C167.54129375426524 395.82308668391715 167.22509321329048 396.5554721266492 166.72542137027978 397.20537047173565C166.22599948817106 397.85276920780257 165.56835235512395 398.3701882748521 164.7527299320405 398.7526284548453C163.93685754805506 399.1350686348385 162.9795072935623 399.32753852934485 161.88067916856232 399.32753852934485C160.5821322828992 399.32753852934485 159.42481330684143 399.0525815371929 158.4092221621929 398.50266755288897C157.39363101754435 397.952753568585 156.59450601398999 397.1953720356574 156.0118471515298 396.230522954106C155.4291882890696 395.26567387255454 155.13773387738854 394.1408498137511 155.13773387738854 392.8585503867152C155.13773387738854 391.5612533055619 155.42093957930504 390.4289304196997 155.98685106133416 389.46158172912874C156.5530125042652 388.4792353844404 157.33539012738854 387.714355024454 158.33448385250796 387.16444104015017C159.33332761672543 386.6145270558462 160.47389921235214 386.3395700636942 161.75569871758418 386.3395700636942C163.10423778363852 386.3395700636942 164.23656066950068 386.60702822878756 165.1521674533667 387.13944494995445C166.0677742372327 387.67186167112146 166.74216875071087 388.46423773032296 167.17510103289922 389.51157390952C167.62453073461668 390.54391243459963 167.80775207575067 391.8337106886942 167.72451509539923 393.3834682808235H157.51036275875796C157.5935997391094 394.13335098669245 157.81831458996814 394.79824698589624 158.18450731133416 395.3806558874545C158.56744741313125 395.9630647890127 159.06686929523997 396.4204932395928 159.68302291856233 396.7554408482143C160.3156739614138 397.08788884781615 161.03981069438126 397.25286304310737 161.8556830783667 397.25286304310737C162.77128986223272 397.25286304310737 163.53717006582687 397.0453954944836 164.15332368914923 396.6304603972361C164.76922735156958 396.213025690969 165.1854122533269 395.6731101427434 165.40187839442106 395.00571453452ZM161.7806948077798 388.3892494597361C160.69861406321087 388.3892494597361 159.79950469887396 388.67920410600544 159.08361667567104 389.26161300756365C158.36772865246817 389.8290242550045 157.89330286055505 390.58640578793216 157.6600893390298 391.5362572153663H165.32689012383415C165.26040052391377 390.518916344404 164.89420780254775 389.74653715735894 164.22806199883416 389.2116208271724C163.56216615602253 388.6642064518881 162.74629377203706 388.3892494597361 161.7806948077798 388.3892494597361Z" fill="white"></path> <path d="M947.7967488199499 518.9763234687784L947.1468504748634 518.9513273785828L950.4188386814717 508.4604683234759H953.015932452798L948.6941084579731 520.9235188950182H946.4469599493858L942.6750499388648 510.26018681756136H943.3499443741468L939.5305417922543 520.9235188950182H937.2808936746474L933.0115614692334 508.4604683234759H935.6336513307551L938.8056551765809 518.9513273785828L938.1557568314945 518.9763234687784L941.6027176694722 508.4604683234759H944.4247762525591L947.7967488199499 518.9763234687784Z" fill="white"></path> <path d="M957.9326633942788 503.3162729612147V505.88837064234525H954.9606282700182V503.3162729612147H957.9326633942788ZM955.2605813523658 508.4604683234759H957.6327103119313V520.9235188950182H955.2605813523658V508.4604683234759Z" fill="white"></path> <path d="M961.2596429993175 503.4662495023885H963.6592676580982V520.9235188950182H961.2596429993175V503.4662495023885Z" fill="white"></path> <path d="M972.227927377161 521.1734797969744C971.1455966716901 521.1734797969744 970.1632503270018 520.8985228048226 969.280888343096 520.3486088205186C968.3985263591901 519.7986948362147 967.6986358337125 519.041313303287 967.1837163756825 518.0764642217357C966.6837945717698 517.0941178770472 966.4338336698135 515.9692938182438 966.4338336698135 514.7044916543448C966.4338336698135 513.4396894904459 966.6837945717698 512.3248638677206 967.1837163756825 511.35751517714965C967.683638179595 510.37516883246127 968.3660314419359 509.61028847247496 969.2308961627048 509.060374488171C970.0957608834735 508.49546284974974 971.0956044912988 508.2105074215196 972.227927377161 508.2105074215196C973.2102737218494 508.2105074215196 974.025146262227 508.37798122583024 974.6750446073135 508.7104292254322C975.3249429523999 509.0428772250341 975.8323635833713 509.5103041116924 976.199806109247 510.1102102763876C976.5647490261032 510.7101164410828 976.8222087551183 511.40000853048224 976.9721852962921 512.1823861536055C977.1396591006028 512.9647637767288 977.2221461982484 513.804632407302 977.2221461982484 514.7044916543448C977.2221461982484 515.3693876535488 977.1396591006028 516.0792766151046 976.9721852962921 516.8266597119541C976.8072111010009 517.576542417823 976.5397529359076 518.2839317703595 976.1748100190514 518.9513273785828C975.8073674931757 519.6162233777866 975.2999468622043 520.1561389260122 974.6500485171179 520.5735736322792C974.0001501720313 520.9735110754094 973.1927764587125 521.1734797969744 972.227927377161 521.1734797969744ZM972.902821812443 519.0988043107369C973.785183796349 519.0988043107369 974.5250680661396 518.9088340252503 975.1249742308348 518.526393845257C975.7398780496474 518.1264564021269 976.199806109247 517.5940396809599 976.4997591915946 516.9266440727366C976.7972126649227 516.2617480735327 976.9471892060965 515.5193641947225 976.9471892060965 514.7044916543448C976.9471892060965 513.822129670439 976.7897138378639 513.0472508743744 976.474763101399 512.3823548751706C976.1748100190514 511.71495926694723 975.7148819594516 511.20003980891715 975.0999781406392 510.8325972830414C974.500071975944 510.4676543661852 973.767686533212 510.285182907757 972.902821812443 510.285182907757C971.6030251222702 510.285182907757 970.5956826873862 510.7001180050045 969.8807945077912 511.5324878085191C969.1809039823135 512.3648576120337 968.8309587195745 513.422192227309 968.8309587195745 514.7044916543448C968.8309587195745 515.5693563751137 969.005931350944 516.3367363441197 969.3558766136829 517.0016323433234C969.7058218764216 517.6515306884098 970.1807475901387 518.1664501464398 970.7806537548339 518.5513899354527C971.3955575736464 518.9163328523089 972.1029469261829 519.0988043107369 972.902821812443 519.0988043107369ZM976.9471892060965 503.4662495023885H979.3443142558575V520.9235188950182H977.1471579276614C977.0971657472702 520.5560763691424 977.047173566879 520.106146745621 976.9971813864877 519.573730024454C976.9646864692334 519.041313303287 976.9471892060965 518.583884852707 976.9471892060965 518.2014446727138V503.4662495023885Z" fill="white"></path> <path d="M983.1612172287307 503.4662495023885H985.5583422784918V520.9235188950182H983.1612172287307V503.4662495023885Z" fill="white"></path> <path d="M987.8604821855095 508.4604683234759H990.4075837764444L995.1768377857711 520.4235970911055L993.1046619085532 520.9235188950182L987.8604821855095 508.4604683234759ZM1000.5709940499886 508.4604683234759L993.1046619085532 525.9177377161055H990.5825564078139L993.8045524340309 519.1487964911283L998.0488885492493 508.4604683234759H1000.5709940499886Z" fill="white"></path> </svg> 