<?xml version="1.0" encoding="UTF-8"?> <svg xmlns="http://www.w3.org/2000/svg" viewBox="0 0 161 52" fill="none"><path d="M11.6001 25.39575C16.74315 25.39575 20.02595 22.421125 20.6278 17.6837H17.837425C17.18085 21.09905 15.04705 22.806725 11.6001 22.806725C7.4419 22.806725 4.870375 19.611725 4.870375 14.32345C4.870375 9.035175 7.332475 5.95035 11.6001 5.95035C14.937625 5.95035 17.071425 7.7682 17.837425 11.073375H20.6278C19.916525 6.446125 16.797875 3.3613 11.709525 3.3613C5.7458 3.3613 2.080005 7.602925 2.080005 14.378525C2.080005 21.154125 5.691075 25.39575 11.6001 25.39575Z" fill="white"></path><path d="M37.8615 21.208175V18.674225H31.296V2.533975H37.8615V0H21.99465V2.533975H28.56025V18.674225H21.99465V21.208175H37.8615Z" fill="white"></path><path d="M37.262 9.363425H44.37475V28.03775H47.1105V9.363425H54.22325V6.829475H37.262V9.363425Z" fill="white"></path><path d="M59.4755 14.3204H69.92575L69.98025 11.78645H59.4755V5.341375H70.96525V2.8074H56.73975V24.015575H59.4755V14.3204Z" fill="white"></path><path d="M50.66325 29.9655C44.75425 29.9655 40.54125 34.59275 40.54125 40.98275C40.54125 47.37275 44.75425 52 50.77275 52C56.791 52 60.8945 47.37275 60.8945 40.98275C60.8945 34.59275 56.68175 29.9655 50.66325 29.9655ZM50.718 49.411C46.2315 49.411 43.277 45.8855 43.277 40.8725C43.277 35.85975 46.17675 32.5545 50.718 32.5545C55.25925 32.5545 58.159 36.08 58.159 41.093C58.159 46.10575 55.25925 49.411 50.718 49.411Z" fill="white"></path><path d="M55.09275 39.71725H46.3385V42.25125H55.09275V39.71725Z" fill="white"></path><path d="M74.082 39.94075H77.529L68.63475 28.76025L76.81775 18.732475H73.58975L66.35225 27.60125H65.76575V18.732475H63.03V39.94075H65.76575V30.13525H66.35825L74.082 39.94075Z" fill="white"></path><path d="M29.50075 25.82175V24.2381H26.8745V25.8285C20.9682 26.24775 17.463825 29.4415 17.463825 34.92475C17.463825 40.408 20.985725 43.721 26.8745 44.13425V45.72175H29.50075V44.13525C35.4405 43.732 38.96625 40.53475 38.96625 35.035C38.96625 29.53525 35.423 26.2185 29.50075 25.82175ZM20.1995 34.92475C20.1995 30.70625 22.700975 28.64 26.8745 28.308V41.63875C22.6129 41.25425 20.1995 39.05675 20.1995 34.92475ZM29.50075 41.6575V28.31625C33.79625 28.68675 36.2305 30.88525 36.2305 35.035C36.2305 39.18475 33.707 41.34625 29.50075 41.6575Z" fill="white"></path><path d="M7.8787 27.82125L0 46.5505V49.02925H18.493075V46.5505L10.614375 27.82125H7.8787ZM3.009225 46.5505L9.246525 31.0785L15.48385 46.5505H3.009225Z" fill="white"></path><path d="M93.438 5.998375C93.3935 6.3625 93.271 6.67375 93.07025 6.93265C92.8695 7.1921 92.6085 7.391525 92.28675 7.530875C91.965 7.67025 91.5985 7.7402 91.1875 7.7402C90.816 7.7402 90.47575 7.682925 90.16675 7.56835C89.857 7.453775 89.58875 7.28905 89.36125 7.074775C89.13375 6.860475 88.95525 6.597725 88.82675 6.285925C88.698 5.9747 88.6335 5.62435 88.6335 5.23545C88.6335 4.846525 88.6975 4.490675 88.82675 4.1811C88.95525 3.87205 89.13375 3.6093 89.36125 3.39225C89.58875 3.175225 89.8575 3.00995 90.16675 2.895375C90.47575 2.7808 90.8165 2.7235 91.1875 2.7235C91.6035 2.7235 91.97225 2.794575 92.294 2.9367C92.6155 3.078825 92.8765 3.280425 93.07725 3.5421C93.2775 3.80375 93.40025 4.11665 93.445 4.4802H92.76175C92.697 4.2461 92.591 4.046675 92.44225 3.881975C92.294 3.717275 92.11275 3.591675 91.9 3.504625C91.687 3.4176 91.44975 3.373525 91.187 3.373525C90.8505 3.373525 90.5435 3.4457 90.26625 3.590575C89.98875 3.7349 89.76725 3.944775 89.6015 4.21855C89.43575 4.492875 89.3525 4.83165 89.3525 5.23545C89.3525 5.639225 89.435 5.97195 89.6015 6.248475C89.76725 6.525 89.98875 6.734325 90.26625 6.87645C90.5435 7.018575 90.85 7.08965 91.187 7.08965C91.449 7.08965 91.6855 7.047225 91.896 6.9624C92.10625 6.87755 92.28575 6.753075 92.4345 6.58835C92.58275 6.42365 92.69175 6.227 92.761 5.997825H93.43675L93.438 5.998375Z" fill="white"></path><path d="M104.4515 30.3745H101.927V31.0025H104.4515V30.3745Z" fill="white"></path><path fill-rule="evenodd" clip-rule="evenodd" d="M101.87125 32.9465C102.2595 33.151 102.704 33.25275 103.204 33.25275C103.709 33.25275 104.15425 33.151 104.5405 32.9465C104.92625 32.74225 105.231 32.4535 105.45375 32.0795C105.6765 31.7055 105.788 31.267 105.788 30.7485C105.788 30.23025 105.6765 29.7845 105.45375 29.4105C105.231 29.037 104.927 28.74775 104.5405 28.5435C104.15425 28.33975 103.704 28.23725 103.204 28.23725C102.704 28.23725 102.2595 28.339 101.87125 28.5435C101.48275 28.74775 101.178 29.0365 100.958 29.4105C100.7375 29.784 100.6275 30.23525 100.6275 30.7485C100.6275 31.262 100.7375 31.7055 100.958 32.0795C101.178 32.453 101.48275 32.74225 101.87125 32.9465ZM104.15425 32.393C103.877 32.53225 103.56025 32.60225 103.204 32.60225C102.857 32.60225 102.543 32.53225 102.26075 32.393C101.979 32.2535 101.75625 32.047 101.59275 31.7725C101.429 31.49875 101.3475 31.15675 101.3475 30.7485C101.3475 30.3405 101.429 29.99875 101.59275 29.7245C101.75575 29.45075 101.9785 29.2425 102.26075 29.1005C102.543 28.95825 102.84775 28.88725 103.204 28.88725C103.56025 28.88725 103.877 28.95825 104.15425 29.1005C104.43175 29.2425 104.65175 29.45075 104.81525 29.7245C104.97875 29.99825 105.0605 30.33975 105.0605 30.7485C105.0605 31.15725 104.97875 31.49875 104.81525 31.7725C104.65175 32.0465 104.43175 32.2535 104.15425 32.393Z" fill="white"></path><path fill-rule="evenodd" clip-rule="evenodd" d="M90.3375 28.321L88.37 33.173H93.0775L91.09475 28.321H90.3375ZM92.05275 32.53025L90.71675 29.133L89.3865 32.53025H92.05275Z" fill="white"></path><path d="M94.6635 28.321H93.9505V33.173H94.6635V28.321Z" fill="white"></path><path d="M96.68075 31.07275V32.53025H99.7845V33.173H95.96775V28.321H99.777V28.964H96.68075V30.444H99.21275V31.072L96.68075 31.07275Z" fill="white"></path><path d="M110.612 28.321V32.1295L107.456 28.321H106.74325V33.173H107.456V29.3785L110.612 33.173H111.3325V28.321H110.612Z" fill="white"></path><path d="M113.21225 32.53025V31.07275L115.7445 31.072V30.444H113.21225V28.964H116.3085V28.321H112.4995V33.173H116.31625V32.53025H113.21225Z" fill="white"></path><path d="M117.35875 28.321H121.1905V28.964H118.185L119.9955 30.68375L118.18075 32.53075H121.26475V33.1735H117.35875V32.54575L119.11175 30.71025L117.35875 28.99425V28.321Z" fill="white"></path><path fill-rule="evenodd" clip-rule="evenodd" d="M126.9215 32.575V33.174H126.2015V32.57525C125.89425 32.561 125.61425 32.52725 125.36225 32.47475C125.016 32.40275 124.722 32.29025 124.4825 32.13825C124.24225 31.98625 124.06175 31.7945 123.94025 31.5625C123.81875 31.33075 123.7585 31.06075 123.7585 30.75125C123.7585 30.4415 123.81925 30.158 123.94025 29.92875C124.06175 29.6995 124.24225 29.509 124.4825 29.357C124.72275 29.205 125.016 29.093 125.36225 29.0205C125.61425 28.96775 125.89425 28.93425 126.2015 28.92V28.31425H126.9215V28.92025C127.2285 28.93475 127.51 28.96825 127.76075 29.0205C128.10725 29.0925 128.39925 29.205 128.63675 29.357C128.87425 29.509 129.0555 29.6995 129.179 29.92875C129.30275 30.158 129.3645 30.43225 129.3645 30.75125C129.3645 31.07025 129.30275 31.33075 129.179 31.5625C129.0555 31.7945 128.87475 31.98625 128.63675 32.13825C128.39925 32.29025 128.10725 32.40275 127.76075 32.47475C127.50975 32.52725 127.23 32.56075 126.9215 32.575ZM126.2015 29.572C125.91 29.5875 125.6555 29.623 125.43275 29.67875C125.12325 29.75575 124.88675 29.88025 124.72375 30.05275C124.56025 30.2245 124.47875 30.4575 124.47875 30.75175C124.47875 31.046 124.56025 31.27125 124.72375 31.443C124.88725 31.615 125.12375 31.7395 125.43275 31.817C125.655 31.8725 125.9115 31.908 126.2015 31.92375V29.572ZM126.9215 29.57225V31.9235C127.2125 31.90775 127.46875 31.87225 127.69025 31.817C127.9995 31.74 128.23475 31.6155 128.3955 31.443C128.5565 31.27125 128.63675 31.0405 128.63675 30.75175C128.63675 30.463 128.5565 30.2245 128.3955 30.05275C128.23475 29.88075 127.9995 29.75625 127.69025 29.67875C127.46875 29.6235 127.21275 29.588 126.9215 29.57225Z" fill="white"></path><path d="M131.06075 31.07275V32.53025H134.1645V33.173H130.34775V28.321H134.157V28.964H131.06075V30.444H133.59275V31.072L131.06075 31.07275Z" fill="white"></path><path d="M139.02725 28.321H135.19575V28.99425L136.9485 30.71025L135.19575 32.54575V33.1735H139.10175V32.53075H136.0175L137.8325 30.68375L136.022 28.964H139.02725V28.321Z" fill="white"></path><path d="M139.7095 28.321H143.9345V28.964H142.182V33.173H141.462V28.964H139.7095V28.321Z" fill="white"></path><path d="M145.50325 28.321H144.79025V33.173H145.50325V28.321Z" fill="white"></path><path fill-rule="evenodd" clip-rule="evenodd" d="M146.80525 33.173V28.321H148.9735C149.518 28.321 149.93875 28.4335 150.23575 28.65775C150.53275 28.88175 150.68125 29.2035 150.68125 29.62225C150.68125 29.88175 150.62525 30.091 150.51425 30.25025C150.40275 30.41 150.2455 30.52775 150.04275 30.6055C149.90725 30.657 149.7565 30.69675 149.5905 30.725C149.704 30.737 149.81375 30.75325 149.92 30.7735C150.10075 30.80825 150.25925 30.866 150.3955 30.9455C150.53175 31.02525 150.64075 31.135 150.72225 31.27425C150.80375 31.4135 150.84475 31.596 150.84475 31.82025C150.84475 32.11425 150.77525 32.3595 150.63675 32.55675C150.4985 32.75375 150.30625 32.902 150.06125 33.00175C149.816 33.1015 149.53275 33.15875 149.211 33.1735L146.80525 33.173ZM147.51825 30.459H148.914C149.2405 30.459 149.4955 30.39275 149.67875 30.26075C149.862 30.1285 149.9535 29.93575 149.9535 29.68125C149.9535 29.42675 149.862 29.23775 149.67875 29.128C149.4955 29.0185 149.263 28.9635 148.98075 28.9635H147.5175V30.4585L147.51825 30.459ZM147.51825 32.52975H149.0775C149.404 32.52975 149.659 32.4695 149.8425 32.35C150.02575 32.2305 150.117 32.041 150.117 31.78225C150.117 31.58275 150.06025 31.4335 149.94625 31.33375C149.8325 31.234 149.68525 31.169 149.50425 31.13925C149.32375 31.1095 149.1365 31.09475 148.9435 31.09475H147.5175V32.53025L147.51825 32.52975Z" fill="white"></path><path fill-rule="evenodd" clip-rule="evenodd" d="M153.282 28.321L151.3145 33.173H152.07925L152.5505 31.9695H154.7765L155.25 33.173H156.022L154.039 28.321H153.282ZM154.52375 31.3265L153.661 29.133L152.80225 31.3265H154.52375Z" fill="white"></path><path d="M156.2925 33.173L158.26 28.321H159.01725L161 33.173H160.228L158.63925 29.133L157.05725 33.173H156.2925Z" fill="white"></path><path d="M92.41525 37.12825H89.89075V37.75625H92.41525V37.12825Z" fill="white"></path><path fill-rule="evenodd" clip-rule="evenodd" d="M89.835 39.70025C90.2235 39.9045 90.66775 40.0065 91.16775 40.0065C91.67275 40.0065 92.11825 39.9045 92.5045 39.70025C92.89025 39.49575 93.195 39.207 93.4175 38.833C93.64025 38.459 93.752 38.0205 93.752 37.50225C93.752 36.98375 93.64025 36.53825 93.4175 36.16425C93.195 35.79075 92.89075 35.5015 92.5045 35.297C92.11825 35.09325 91.66775 34.99075 91.16775 34.99075C90.66775 34.99075 90.2235 35.09275 89.835 35.297C89.4465 35.5015 89.14175 35.79 88.92175 36.16425C88.70125 36.53775 88.59125 36.98875 88.59125 37.50225C88.59125 38.0155 88.70125 38.459 88.92175 38.833C89.14175 39.2065 89.4465 39.49575 89.835 39.70025ZM92.11825 39.1465C91.84075 39.286 91.524 39.35575 91.16775 39.35575C90.821 39.35575 90.50675 39.286 90.2245 39.1465C89.94275 39.00725 89.72 38.8005 89.5565 38.52625C89.393 38.2525 89.31125 37.9105 89.31125 37.50225C89.31125 37.094 89.393 36.7525 89.5565 36.47825C89.7195 36.20425 89.94225 35.99625 90.2245 35.854C90.50675 35.712 90.8115 35.64075 91.16775 35.64075C91.524 35.64075 91.84075 35.712 92.11825 35.854C92.3955 35.99625 92.6155 36.20425 92.779 36.47825C92.94275 36.752 93.02425 37.0935 93.02425 37.50225C93.02425 37.911 92.94275 38.2525 92.779 38.52625C92.6155 38.8 92.3955 39.00725 92.11825 39.1465Z" fill="white"></path><path d="M95.45075 37.825V39.28275H98.5545V39.9255H94.73775V35.0735H98.547V35.7165H95.45075V37.1965H97.98275V37.8245L95.45075 37.825Z" fill="white"></path><path fill-rule="evenodd" clip-rule="evenodd" d="M101.10725 35.0735L99.13975 39.9255H99.9045L100.37575 38.722H102.60175L103.07525 39.9255H103.84725L101.8645 35.0735H101.10725ZM102.349 38.079L101.48625 35.8855L100.6275 38.079H102.349Z" fill="white"></path><path d="M104.10175 35.0735H108.32675V35.7165H106.57425V39.9255H105.85425V35.7165H104.10175V35.0735Z" fill="white"></path><path fill-rule="evenodd" clip-rule="evenodd" d="M109.73925 38.251V39.9255H109.02625V35.0735H111.321C111.5585 35.0735 111.78 35.10725 111.98575 35.17425C112.191 35.2415 112.372 35.34225 112.528 35.47725C112.68375 35.61175 112.80525 35.77875 112.89175 35.978C112.97825 36.1775 113.022 36.4095 113.022 36.67325C113.022 36.937 112.97875 37.16175 112.89175 37.36125C112.80525 37.56075 112.68375 37.7265 112.528 37.85875C112.372 37.991 112.1915 38.0895 111.98575 38.154C111.7805 38.219 111.559 38.251 111.321 38.251H109.73925ZM109.73925 37.623H111.3505C111.63775 37.623 111.86925 37.536 112.04475 37.36125C112.2205 37.18675 112.3085 36.9575 112.3085 36.67325C112.3085 36.389 112.2205 36.14775 112.04475 35.978C111.86925 35.8085 111.63775 35.724 111.3505 35.724H109.73925V37.623Z" fill="white"></path><path fill-rule="evenodd" clip-rule="evenodd" d="M116.33675 40.0065C115.8365 40.0065 115.39225 39.9045 115.00375 39.70025C114.61525 39.49575 114.3105 39.2065 114.09075 38.833C113.87025 38.459 113.76025 38.0155 113.76025 37.50225C113.76025 36.98875 113.87025 36.53775 114.09075 36.16425C114.3105 35.79 114.61525 35.5015 115.00375 35.297C115.39225 35.09275 115.8365 34.99075 116.33675 34.99075C116.83675 34.99075 117.287 35.09325 117.67325 35.297C118.0595 35.5015 118.36375 35.79075 118.5865 36.16425C118.80925 36.53825 118.92075 36.98375 118.92075 37.50225C118.92075 38.0205 118.80925 38.459 118.5865 38.833C118.36375 39.207 118.059 39.49575 117.67325 39.70025C117.287 39.9045 116.84175 40.0065 116.33675 40.0065ZM116.33675 39.35575C116.69275 39.35575 117.0095 39.286 117.287 39.1465C117.5645 39.00725 117.78425 38.8 117.948 38.52625C118.1115 38.2525 118.193 37.911 118.193 37.50225C118.193 37.0935 118.1115 36.752 117.948 36.47825C117.78425 36.20425 117.5645 35.99625 117.287 35.854C117.0095 35.712 116.69275 35.64075 116.33675 35.64075C115.9805 35.64075 115.67575 35.712 115.3935 35.854C115.111 35.99625 114.8885 36.20425 114.72525 36.47825C114.56175 36.7525 114.48025 37.094 114.48025 37.50225C114.48025 37.9105 114.56175 38.2525 114.72525 38.52625C114.889 38.8005 115.1115 39.00725 115.3935 39.1465C115.67575 39.286 115.98975 39.35575 116.33675 39.35575Z" fill="white"></path><path d="M122.0005 38.30325L123.8345 35.0735H123.01825L121.6575 37.594L120.2705 35.0735H119.45375L121.28775 38.30325V39.9255H122.0005V38.30325Z" fill="white"></path><path d="M126.238 35.0735H126.95075V39.9255H126.238V35.0735Z" fill="white"></path><path d="M130.597 39.9255L127.8765 37.367L130.278 35.0735H129.2905L126.9515 37.38375L129.5945 39.9255H130.597Z" fill="white"></path><path d="M133.4685 38.30325L135.3025 35.0735H134.48625L133.1255 37.594L131.7385 35.0735H130.92175L132.75575 38.30325V39.9255H133.4685V38.30325Z" fill="white"></path><path d="M136.05825 35.0735H140.63225V39.9255H139.91225V35.7165H136.77125V39.9255H136.05825V35.0735Z" fill="white"></path><path fill-rule="evenodd" clip-rule="evenodd" d="M142.5115 38.251V39.9255H141.7985V35.0735H144.09325C144.33075 35.0735 144.55225 35.10725 144.758 35.17425C144.96325 35.2415 145.14425 35.34225 145.30025 35.47725C145.45625 35.61175 145.57775 35.77875 145.664 35.978C145.7505 36.1775 145.79425 36.4095 145.79425 36.67325C145.79425 36.937 145.751 37.16175 145.664 37.36125C145.57775 37.56075 145.45625 37.7265 145.30025 37.85875C145.14425 37.991 144.96375 38.0895 144.758 38.154C144.553 38.219 144.33125 38.251 144.09325 38.251H142.5115ZM142.5115 37.623H144.12275C144.41 37.623 144.6415 37.536 144.81725 37.36125C144.99275 37.18675 145.08075 36.9575 145.08075 36.67325C145.08075 36.389 144.99275 36.14775 144.81725 35.978C144.6415 35.8085 144.41 35.724 144.12275 35.724H142.5115V37.623Z" fill="white"></path><path fill-rule="evenodd" clip-rule="evenodd" d="M149.07475 40.0065C148.57475 40.0065 148.1305 39.9045 147.742 39.70025C147.3535 39.49575 147.04875 39.2065 146.82875 38.833C146.60825 38.459 146.49825 38.0155 146.49825 37.50225C146.49825 36.98875 146.60825 36.53775 146.82875 36.16425C147.04875 35.79 147.3535 35.5015 147.742 35.297C148.1305 35.09275 148.57475 34.99075 149.07475 34.99075C149.57475 34.99075 150.02525 35.09325 150.4115 35.297C150.79775 35.5015 151.102 35.79075 151.3245 36.16425C151.54725 36.53825 151.65875 36.98375 151.65875 37.50225C151.65875 38.0205 151.54725 38.459 151.3245 38.833C151.102 39.207 150.79725 39.49575 150.4115 39.70025C150.02525 39.9045 149.57975 40.0065 149.07475 40.0065ZM149.07475 39.35575C149.431 39.35575 149.74775 39.286 150.02525 39.1465C150.3025 39.00725 150.5225 38.8 150.686 38.52625C150.84975 38.2525 150.93125 37.911 150.93125 37.50225C150.93125 37.0935 150.84975 36.752 150.686 36.47825C150.5225 36.20425 150.3025 35.99625 150.02525 35.854C149.74775 35.712 149.431 35.64075 149.07475 35.64075C148.7185 35.64075 148.41375 35.712 148.1315 35.854C147.84925 35.99625 147.6265 36.20425 147.4635 36.47825C147.29975 36.7525 147.21825 37.094 147.21825 37.50225C147.21825 37.9105 147.29975 38.2525 147.4635 38.52625C147.627 38.8005 147.84975 39.00725 148.1315 39.1465C148.41375 39.286 148.72775 39.35575 149.07475 39.35575Z" fill="white"></path><path d="M154.76825 38.30325L156.60225 35.0735H155.786L154.42525 37.594L153.03825 35.0735H152.2215L154.0555 38.30325V39.9255H154.76825V38.30325Z" fill="white"></path><path d="M96.54875 6.0371L98.38275 2.8074H97.5665L96.20575 5.32785L94.81875 2.8074H94.00175L95.83575 6.0371V7.6594H96.54875V6.0371Z" fill="white"></path><path fill-rule="evenodd" clip-rule="evenodd" d="M99.824 7.6594V5.984775H101.40575C101.64375 5.984775 101.8655 5.952825 102.0705 5.887825C102.27625 5.823375 102.457 5.724775 102.61275 5.59255C102.76875 5.46035 102.89025 5.29455 102.97675 5.095125C103.06375 4.895725 103.107 4.670975 103.107 4.4071C103.107 4.14325 103.063 3.911325 102.97675 3.711925C102.89025 3.5125 102.76875 3.3456 102.61275 3.211175C102.457 3.076225 102.27575 2.975425 102.0705 2.9082C101.865 2.841 101.64325 2.8074 101.40575 2.8074H99.11125V7.6594H99.824ZM101.4355 5.3568H99.824V3.457975H101.4355C101.72275 3.457975 101.954 3.54225 102.12975 3.711925C102.30525 3.881575 102.3935 4.12285 102.3935 4.4071C102.3935 4.69135 102.30525 4.9205 102.12975 5.095125C101.954 5.26975 101.72275 5.3568 101.4355 5.3568Z" fill="white"></path><path fill-rule="evenodd" clip-rule="evenodd" d="M104.03325 2.8074V7.6583H104.74625V5.729725H106.28325C106.56975 5.729725 106.7925 5.7523 106.95125 5.796925C107.10975 5.8421 107.221 5.919225 107.2855 6.02885C107.3495 6.13845 107.38175 6.2905 107.38175 6.48495V7.65885H108.10225V6.462925C108.10225 6.183625 108.04875 5.9732 107.9425 5.831075C107.836 5.68895 107.68375 5.5909 107.48575 5.535825C107.35375 5.499475 107.20075 5.4729 107.027 5.4563C107.13725 5.437775 107.243 5.412 107.3445 5.378825C107.513 5.32375 107.65925 5.246625 107.78275 5.1469C107.9065 5.0472 108.0045 4.9216 108.076 4.769575C108.14775 4.617525 108.184 4.4319 108.184 4.21265C108.184 3.8937 108.11725 3.63095 107.98375 3.423825C107.85025 3.21725 107.658 3.063 107.408 2.96055C107.158 2.858625 106.85975 2.8074 106.5135 2.8074H104.03325ZM106.5135 5.1023H104.74625V3.457975H106.5135C106.83025 3.457975 107.0695 3.525175 107.23025 3.659575C107.391 3.794 107.4715 3.976325 107.4715 4.235225C107.4715 4.49415 107.391 4.704025 107.23025 4.863225C107.0695 5.022425 106.83025 5.1023 106.5135 5.1023Z" fill="white"></path><path d="M112.93075 5.70825V2.8074H113.64375V5.737975C113.64375 6.0272 113.60775 6.281125 113.536 6.500375C113.46425 6.719625 113.3615 6.909125 113.228 7.068325C113.0945 7.228075 112.93675 7.356425 112.75625 7.453375C112.57575 7.550325 112.375 7.623025 112.155 7.6704C111.9345 7.717775 111.701 7.741475 111.4535 7.741475C111.20625 7.741475 110.95625 7.717775 110.733 7.6704C110.51025 7.623025 110.30625 7.550875 110.12025 7.453375C109.93475 7.356425 109.776 7.228075 109.64475 7.068325C109.5135 6.909125 109.41225 6.719625 109.3405 6.500375C109.269 6.281125 109.23275 6.0272 109.23275 5.737975V2.8074H109.94575V5.70825C109.94575 6.082275 110.0135 6.368725 110.14975 6.568125C110.286 6.76755 110.46775 6.9047 110.69525 6.979075C110.923 7.054 111.17575 7.09145 111.4525 7.09145C111.72925 7.09145 111.9645 7.054 112.18775 6.979075C112.4105 6.90415 112.59 6.76755 112.72625 6.568125C112.8625 6.368725 112.93075 6.082275 112.93075 5.70825Z" fill="white"></path><path d="M114.5075 6.409325C114.47525 6.27025 114.4665 6.15585 114.48175 6.06615H115.1635C115.17825 6.2606 115.244 6.436325 115.3605 6.593325C115.4765 6.7503 115.63525 6.8737 115.836 6.9635C116.03675 7.053275 116.27025 7.0979 116.538 7.0979C116.7705 7.0979 116.9635 7.0654 117.11725 7.00095C117.2705 6.9365 117.386 6.847825 117.4625 6.73545C117.53925 6.623075 117.5775 6.48975 117.5775 6.335525C117.5775 6.181275 117.53525 6.057875 117.451 5.965325C117.36675 5.87335 117.2405 5.796225 117.0725 5.733425C116.904 5.671175 116.696 5.610025 116.44875 5.549975C116.231 5.49545 116.0165 5.42935 115.8065 5.351675C115.59575 5.27455 115.4025 5.1787 115.227 5.063575C115.05125 4.949 114.91025 4.810725 114.8035 4.648775C114.69675 4.486825 114.64375 4.291275 114.64375 4.0621C114.64375 3.818075 114.7105 3.594975 114.8445 3.3928C114.978 3.1912 115.175 3.02925 115.435 2.90695C115.69475 2.78465 116.0105 2.7235 116.3815 2.7235C116.95525 2.7235 117.38975 2.8684 117.68475 3.15705C117.979 3.44625 118.12125 3.8324 118.1115 4.31605H117.4435C117.42875 3.977275 117.322 3.73435 117.124 3.587275C116.92575 3.440175 116.668 3.366925 116.352 3.366925C116.0795 3.366925 115.847 3.4231 115.65375 3.534925C115.4605 3.6473 115.36425 3.822475 115.36425 4.0621C115.36425 4.166775 115.38675 4.25765 115.431 4.334775C115.4755 4.4119 115.54975 4.482975 115.65375 4.547975C115.75775 4.612975 115.89775 4.675225 116.0735 4.7347C116.249 4.79475 116.46775 4.8592 116.7305 4.929175C116.9285 4.973775 117.12 5.031625 117.306 5.101025C117.4915 5.171 117.659 5.258025 117.80725 5.3627C117.9555 5.46735 118.07325 5.601775 118.16025 5.766475C118.2465 5.931175 118.2905 6.1328 118.2905 6.371875C118.2905 6.626375 118.2285 6.856625 118.105 7.0632C117.98125 7.269775 117.78925 7.434475 117.52925 7.556775C117.2695 7.679075 116.934 7.7402 116.52325 7.7402C116.1965 7.7402 115.913 7.6978 115.673 7.61295C115.43275 7.528125 115.2325 7.4185 115.0715 7.2841C114.91075 7.149675 114.78425 7.0048 114.693 6.850575C114.601 6.696325 114.53925 6.54925 114.5075 6.409325Z" fill="white"></path><path d="M88.9815 9.557575H89.6945V14.409575H88.9815V9.557575Z" fill="white"></path><path d="M94.88125 13.365975V9.557575H95.60175V14.409575H94.88125L91.7255 10.615125V14.409575H91.0125V9.557575H91.7255L94.88125 13.365975Z" fill="white"></path><path d="M96.31125 9.557575H100.53625V10.200425H98.78375V14.409575H98.06375V10.200425H96.31125V9.557575Z" fill="white"></path><path d="M101.97025 13.7667V12.309125L104.5025 12.308575V11.6806H101.97025V10.200425H105.0665V9.557575H101.25725V14.409575H105.07425V13.7667H101.97025Z" fill="white"></path><path fill-rule="evenodd" clip-rule="evenodd" d="M106.1065 14.408475V9.557575H108.58675C108.933 9.557575 109.23125 9.6088 109.48125 9.710725C109.73125 9.813175 109.92325 9.967425 110.05675 10.173975C110.19025 10.3811 110.257 10.643875 110.257 10.962825C110.257 11.182075 110.221 11.3677 110.14925 11.51975C110.0775 11.671775 109.97975 11.797375 109.856 11.897075C109.73225 11.9968 109.58625 12.0739 109.41775 12.129C109.31625 12.162175 109.2105 12.18795 109.1 12.206475C109.274 12.223075 109.42675 12.249625 109.559 12.286C109.757 12.341075 109.909 12.439125 110.01575 12.58125C110.122 12.723375 110.1755 12.9338 110.1755 13.2131V14.409025H109.455V13.235125C109.455 13.040675 109.42275 12.888625 109.35875 12.779025C109.294 12.6694 109.183 12.592275 109.02425 12.5471C108.86575 12.502475 108.643 12.4799 108.35625 12.4799H106.8195V14.408475H106.1065ZM106.8195 11.852475H108.58675C108.9035 11.852475 109.1425 11.7726 109.3035 11.6134C109.46425 11.4542 109.54475 11.2443 109.54475 10.9854C109.54475 10.7265 109.46425 10.544175 109.3035 10.40975C109.1425 10.27535 108.9035 10.20815 108.58675 10.20815H106.8195V11.852475Z" fill="white"></path><path d="M115.16 13.365975V9.557575H115.8805V14.409575H115.16L112.004 10.615125V14.409575H111.291V9.557575H112.004L115.16 13.365975Z" fill="white"></path><path fill-rule="evenodd" clip-rule="evenodd" d="M116.623 14.409575L118.5905 9.557575H119.34775L121.3305 14.409575H120.5585L120.085 13.205925H117.859L117.38775 14.409575H116.623ZM118.11075 12.563075H119.83225L118.9695 10.369475L118.11075 12.563075Z" fill="white"></path><path d="M125.31475 9.557575H121.08975V10.200425H122.84225V14.409575H123.56225V10.200425H125.31475V9.557575Z" fill="white"></path><path d="M126.174 9.557575H126.887V14.409575H126.174V9.557575Z" fill="white"></path><path fill-rule="evenodd" clip-rule="evenodd" d="M129.2525 14.18645C129.64075 14.390825 130.085 14.492725 130.58525 14.492725C131.09025 14.492725 131.5355 14.390825 131.92175 14.18645C132.3075 13.982075 132.61225 13.693425 132.835 13.3194C133.05775 12.94535 133.16925 12.506875 133.16925 11.9885C133.16925 11.47015 133.05775 11.0245 132.835 10.650475C132.61225 10.276975 132.308 9.987775 131.92175 9.7834C131.5355 9.5796 131.08525 9.477125 130.58525 9.477125C130.085 9.477125 129.64075 9.57905 129.2525 9.7834C128.864 9.987775 128.55925 10.276425 128.33925 10.650475C128.11875 11.02395 128.00875 11.4751 128.00875 11.9885C128.00875 12.501925 128.11875 12.94535 128.33925 13.3194C128.55925 13.692875 128.864 13.982075 129.2525 14.18645ZM131.5355 13.632825C131.25825 13.7722 130.9415 13.842175 130.58525 13.842175C130.23825 13.842175 129.92425 13.7722 129.642 13.632825C129.36025 13.493475 129.1375 13.2869 128.974 13.012575C128.81025 12.738775 128.72875 12.3967 128.72875 11.9885C128.72875 11.580325 128.81025 11.2388 128.974 10.96445C129.137 10.690675 129.3595 10.48245 129.642 10.340325C129.92425 10.1982 130.229 10.12715 130.58525 10.12715C130.9415 10.12715 131.25825 10.1982 131.5355 10.340325C131.813 10.48245 132.033 10.690675 132.1965 10.96445C132.36 11.238225 132.4415 11.579775 132.4415 11.9885C132.4415 12.39725 132.36 12.738775 132.1965 13.012575C132.033 13.28635 131.813 13.493475 131.5355 13.632825Z" fill="white"></path><path d="M137.9955 9.557575V13.365975L134.8395 9.557575H134.12675V14.409575H134.8395V10.615125L137.9955 14.409575H138.716V9.557575H137.9955Z" fill="white"></path><path fill-rule="evenodd" clip-rule="evenodd" d="M141.40425 9.557575L139.43675 14.409575H140.20175L140.673 13.205925H142.899L143.37225 14.409575H144.14425L142.1615 9.557575H141.40425ZM142.64625 12.563075H140.9245L141.7835 10.3695L142.64625 12.563075Z" fill="white"></path><path d="M145.57625 9.557575V13.7667H148.4125V14.409575H144.86325V9.557575H145.57625Z" fill="white"></path><path d="M92.595 16.31005H88.37V16.9529H90.1225V21.162025H90.8425V16.9529H92.595V16.31005Z" fill="white"></path><path d="M93.2945 16.31005H94.00725V18.411025H97.1485V16.31005H97.8685V21.162025H97.1485V19.0616H94.00725V21.162025H93.2945V16.31005Z" fill="white"></path><path d="M99.766 20.519175V19.0616L102.298 19.06105V18.433075H99.766V16.9529H102.862V16.31005H99.053V21.162025H102.86975V20.519175H99.766Z" fill="white"></path><path fill-rule="evenodd" clip-rule="evenodd" d="M103.47075 21.162025L105.43825 16.31005H106.1955L108.1785 21.162025H107.40625L106.933 19.9584H104.707L104.23575 21.162025H103.47075ZM104.95875 19.31555H106.68025L105.8175 17.12195L104.95875 19.31555Z" fill="white"></path><path d="M112.1695 16.31005H107.94475V16.9529H109.697V21.162025H110.417V16.9529H112.1695V16.31005Z" fill="white"></path><path fill-rule="evenodd" clip-rule="evenodd" d="M112.8645 21.160925V16.31005H115.34475C115.691 16.31005 115.98925 16.361275 116.23925 16.463175C116.48925 16.56565 116.68125 16.719875 116.81475 16.92645C116.94825 17.133575 117.015 17.39635 117.015 17.7153C117.015 17.93455 116.979 18.120175 116.90725 18.272225C116.8355 18.42425 116.73775 18.54985 116.614 18.64955C116.4905 18.74925 116.34425 18.826375 116.17575 18.881475C116.07425 18.91465 115.9685 18.940425 115.858 18.95895C116.032 18.97555 116.185 19.0021 116.317 19.038475C116.515 19.09355 116.667 19.1916 116.77375 19.333725C116.88 19.47585 116.9335 19.686275 116.9335 19.965575V21.1615H116.213V19.9876C116.213 19.79315 116.18075 19.6411 116.11675 19.531475C116.05225 19.421875 115.941 19.34475 115.7825 19.299575C115.62375 19.25495 115.401 19.232375 115.11425 19.232375H113.5775V21.160925H112.8645ZM113.5775 18.604925H115.34475C115.6615 18.604925 115.9005 18.52505 116.0615 18.36585C116.22225 18.206675 116.30275 17.996775 116.30275 17.737875C116.30275 17.478975 116.22225 17.29665 116.0615 17.162225C115.9005 17.027825 115.6615 16.960625 115.34475 16.960625H113.5775V18.604925Z" fill="white"></path><path d="M118.75525 20.519175V19.0616L121.28725 19.06105V18.433075H118.75525V16.9529H121.8515V16.31005H118.04225V21.162025H121.859V20.519175H118.75525Z" fill="white"></path><path d="M128.34125 16.3106V16.95345H125.245V18.463375H127.77725V19.09135H125.245V21.162025H124.53225V16.31005L128.34125 16.3106Z" fill="white"></path><path d="M129.85125 20.519175V19.0616L132.38325 19.06105V18.433075H129.85125V16.9529H132.9475V16.31005H129.13825V21.162025H132.955V20.519175H129.85125Z" fill="white"></path><path d="M133.67175 19.571075C133.65675 19.6608 133.6655 19.7752 133.69775 19.914275C133.72925 20.0542 133.79125 20.201275 133.883 20.3555C133.9745 20.50975 134.10075 20.654625 134.26175 20.78905C134.4225 20.92345 134.62275 21.033075 134.863 21.1179C135.10325 21.202725 135.38675 21.24515 135.71325 21.24515C136.12425 21.24515 136.4595 21.184 136.7195 21.061725C136.97925 20.939425 137.17125 20.774725 137.295 20.56815C137.41875 20.361575 137.4805 20.1313 137.4805 19.8768C137.4805 19.63775 137.43675 19.436125 137.35025 19.271425C137.26325 19.1067 137.14575 18.9723 136.9975 18.867625C136.849 18.762975 136.68175 18.675925 136.49625 18.605975C136.31025 18.536575 136.11875 18.478725 135.92075 18.4341C135.658 18.36415 135.43925 18.2997 135.2635 18.23965C135.088 18.18015 134.94775 18.1179 134.844 18.0529C134.74 17.9879 134.6655 17.91685 134.62125 17.839725C134.57675 17.7626 134.5545 17.671725 134.5545 17.56705C134.5545 17.327425 134.65075 17.15225 134.844 17.039875C135.037 16.92805 135.2695 16.87185 135.542 16.87185C135.85825 16.87185 136.116 16.945125 136.314 17.0922C136.512 17.239275 136.61875 17.482225 136.6335 17.821H137.3015C137.3115 17.33735 137.16925 16.951175 136.87475 16.661975C136.58 16.373325 136.1455 16.22845 135.5715 16.22845C135.2005 16.22845 134.885 16.2896 134.625 16.4119C134.36525 16.534175 134.16825 16.696125 134.03475 16.89775C133.9005 17.099925 133.83375 17.323025 133.83375 17.56705C133.83375 17.7962 133.887 17.991775 133.99375 18.153725C134.10025 18.315675 134.2415 18.453925 134.417 18.568525C134.59275 18.68365 134.78575 18.7795 134.9965 18.856625C135.2065 18.934275 135.421 19.0004 135.63875 19.054925C135.88625 19.114975 136.094 19.176125 136.2625 19.238375C136.4305 19.30115 136.557 19.378275 136.64125 19.470275C136.7255 19.562825 136.7675 19.686225 136.7675 19.84045C136.7675 19.9947 136.72925 20.128 136.65275 20.240375C136.576 20.35275 136.46075 20.44145 136.3075 20.5059C136.15375 20.57035 135.9605 20.60285 135.728 20.60285C135.4605 20.60285 135.22675 20.558225 135.026 20.468425C134.82525 20.37865 134.6665 20.25525 134.5505 20.09825C134.434 19.941275 134.3685 19.765525 134.35375 19.571075H133.67175Z" fill="white"></path><path d="M142.126 16.31005H137.901V16.9529H139.6535V21.162025H140.3735V16.9529H142.126V16.31005Z" fill="white"></path><path d="M142.9785 16.31005H143.69125V21.162025H142.9785V16.31005Z" fill="white"></path><path d="M144.5735 16.31005L146.45225 21.162025H147.26925L149.13325 16.31005H148.3685L146.86075 20.306125L145.35325 16.31005H144.5735Z" fill="white"></path><path fill-rule="evenodd" clip-rule="evenodd" d="M149.41575 21.162025L151.38325 16.31005H152.1405L154.12325 21.162025H153.35125L152.878 19.9584H150.652L150.18075 21.162025H149.41575ZM151.7625 17.12195L152.62525 19.31555H150.90375L151.7625 17.12195Z" fill="white"></path><path d="M155.586 20.519175V16.31005H154.873V21.162025H158.42225V20.519175H155.586Z" fill="white"></path></svg> 